<svg xmlns="http://www.w3.org/2000/svg" xmlns:xlink="http://www.w3.org/1999/xlink" viewBox="0 0 448.2 307.1" enable-background="new 0 0 448.2 307.1"><style type="text/css">.st0{opacity:0.8;fill:#4D4D4D;} .st1{fill:#C886F7;stroke:#C886F7;stroke-miterlimit:10;} .st2{fill:#C886F7;} .st3{fill:#EBDAEF;}</style><defs><circle id="SVGID_1_" cx="208.4" cy="153.6" r="145.8"/></defs><clipPath id="SVGID_2_"><use xlink:href="#SVGID_1_" overflow="visible"/></clipPath><image width="5184" height="3456" xlink:href="IMG_6884.jpg" transform="matrix(.085 .003 -.003 .085 10.01 0)" overflow="visible" clip-path="url(#SVGID_2_)"/><ellipse class="st0" cx="208.8" cy="153.7" rx="151.5" ry="149.4"/><path class="st1" d="M39.3 133.3h-.3c-1.6 0-3.1-.4-4.5-1.3-1.4-.8-2.5-2-3.3-3.4-.8-1.4-1.2-2.9-1.2-4.5 0-2.5.9-4.6 2.7-6.4 1.8-1.8 3.9-2.7 6.4-2.7 1.7 0 3.2.4 4.7 1.3v.9c-1.5-1-3-1.5-4.7-1.5-2.3 0-4.3.8-5.9 2.5-1.6 1.6-2.5 3.6-2.5 5.9s.8 4.3 2.5 5.9c1.6 1.7 3.6 2.5 5.9 2.5 1.7 0 3.3-.5 4.7-1.5v.9c-1.3 1-2.8 1.4-4.5 1.4zm23.8-17.8h.8v17.5h-.8v-6.7h-12v6.7h-.8v-17.5h.8v10.2h12v-10.2zm7.6 0h6.3v.7h-5.5v9.5h4.5v.7h-4.6v6h5.6v.7h-6.3v-17.6zm24.8 0h.7v17.8l-12.9-15.9v15.6h-.7v-17.8l12.9 15.8v-15.5zm7.5 0h.8v17.5h-.8v-17.5zm13.3 1c-.6-.4-1.3-.6-2.1-.6s-1.4.2-2 .7c-.5.5-.8 1.1-.8 2v.1c0 1 .5 1.9 1.6 2.7.5.3 1 .7 1.6 1 .6.3 1.2.7 1.8 1.1.6.4 1.1.8 1.6 1.2.5.4.9 1 1.2 1.6s.5 1.3.5 2.1v.2c0 1.5-.5 2.7-1.5 3.5s-2.2 1.3-3.7 1.3c-1.9 0-3.5-.8-4.5-2.4v-1.3c.4.9 1 1.6 1.8 2.2.8.6 1.8.8 2.9.8s2.2-.4 3-1.1c.9-.7 1.3-1.7 1.3-3v-.1c0-.8-.2-1.5-.6-2.1-.4-.6-.9-1.2-1.5-1.6-.6-.4-1.3-.8-2-1.3s-1.4-.9-2-1.3c-.6-.4-1.1-.9-1.5-1.5-.4-.6-.6-1.2-.6-1.9v-.2c0-1.1.4-1.9 1.1-2.5.7-.6 1.6-.9 2.6-.9 1.4 0 2.6.5 3.4 1.6v1.2c-.5-.7-1-1.2-1.6-1.5zm9.3-1h6.3v.7h-5.5v9.5h4.6v.7h-4.6v6h5.5v.7h-6.3v-17.6zm29 1c-.6-.4-1.3-.6-2.1-.6s-1.4.2-2 .7c-.5.5-.8 1.1-.8 2v.1c0 1 .5 1.9 1.6 2.7.5.3 1 .7 1.6 1 .6.3 1.2.7 1.8 1.1.6.4 1.1.8 1.6 1.2.5.4.9 1 1.2 1.6s.5 1.3.5 2.1v.2c0 1.5-.5 2.7-1.5 3.5s-2.2 1.3-3.7 1.3c-1.9 0-3.5-.8-4.5-2.4v-1.3c.4.9 1 1.6 1.8 2.2.8.6 1.8.8 2.9.8s2.2-.4 3-1.1c.9-.7 1.3-1.7 1.3-3v-.1c0-.8-.2-1.5-.6-2.1-.4-.6-.9-1.2-1.5-1.6-.6-.4-1.3-.8-2-1.3s-1.4-.9-2-1.3c-.6-.4-1.1-.9-1.5-1.5-.4-.6-.6-1.2-.6-1.9v-.2c0-1.1.4-1.9 1.1-2.5.7-.6 1.6-.9 2.6-.9 1.4 0 2.6.5 3.4 1.6v1.2c-.5-.7-1-1.2-1.6-1.5zm14.6 16.9h-.2c-1.4 0-2.6-.5-3.6-1.5s-1.5-2.3-1.5-3.8v-12.6h.8v12.6c0 1.3.4 2.4 1.3 3.3s1.9 1.3 3.2 1.3c1.3 0 2.3-.4 3.2-1.3s1.3-2 1.3-3.3v-12.6h.8v12.5c0 1.5-.5 2.8-1.5 3.8-1.2 1.1-2.4 1.6-3.8 1.6zm29.9-17.9v17.5h-.8v-16.6l-8.3 16.9-8.2-16.9v16.6h-.7v-17.5h1.1l7.9 16.2 7.9-16.2h1.1zm24.7 0v17.5h-.8v-16.6l-8.3 16.9-8.2-16.9v16.6h-.7v-17.5h1.1l7.9 16.2 7.9-16.2h1.1zm6.8 0h6.3v.7h-5.5v9.5h4.6v.7h-4.6v6h5.5v.7h-6.3v-17.6zm11.9 0h1c1.5 0 2.8.6 4 1.7 1.1 1.1 1.7 2.4 1.7 3.9s-.6 2.8-1.8 3.9c-1.2 1.1-2.4 1.7-3.8 1.7h-.2l6 6.4h-1l-5.3-5.6v5.6h-.7v-17.6zm.7 10.5h.4c1.3 0 2.4-.5 3.3-1.4s1.4-2.1 1.4-3.4-.5-2.5-1.5-3.5-2.1-1.5-3.4-1.5h-.3v9.8zm23.5-10.5h.8c1.6 0 3 .6 4.1 1.7s1.7 2.4 1.7 3.9-.6 2.8-1.8 3.9c-1.2 1.1-2.5 1.6-3.9 1.6h-.2v6.4h-.8v-17.5zm.8 10.5h.2c1.3 0 2.5-.5 3.4-1.4s1.5-2.1 1.5-3.4-.5-2.5-1.5-3.5-2.1-1.5-3.4-1.5h-.2v9.8zm16.3-10.9l8.8 17.9h-.8l-3.3-6.7h-9.4l-3.3 6.7h-.7l8.7-17.9zm0 1.6l-4.4 9h8.8l-4.4-9zm30.3 7.6c0 1.4-.3 2.7-1 4-.6 1.3-1.5 2.3-2.6 3.2l1.9 1.9h-1l-1.4-1.4c-1.5 1-3.1 1.4-4.9 1.4h-.3c-1.6 0-3.1-.4-4.5-1.3s-2.5-2-3.3-3.4c-.8-1.4-1.2-2.9-1.2-4.5 0-2.5.9-4.6 2.7-6.4 1.8-1.8 3.9-2.7 6.5-2.7 2.5 0 4.7.9 6.4 2.7 1.8 1.8 2.7 4 2.7 6.5zm-9.1 8.3c1.6 0 3.1-.4 4.5-1.3l-4-4h1l3.6 3.6c1-.8 1.8-1.8 2.4-3 .6-1.2.9-2.4.9-3.7 0-2.3-.8-4.3-2.4-5.9s-3.6-2.5-5.9-2.5c-2.3 0-4.3.8-5.9 2.5s-2.5 3.6-2.5 5.9c0 2.3.8 4.3 2.5 5.9 1.5 1.7 3.5 2.5 5.8 2.5zm20.5.8h-.2c-1.4 0-2.6-.5-3.6-1.5s-1.5-2.3-1.5-3.8v-12.6h.8v12.6c0 1.3.4 2.4 1.3 3.3.9.9 1.9 1.3 3.2 1.3s2.3-.4 3.2-1.3c.8-.9 1.3-2 1.3-3.3v-12.6h.8v12.5c0 1.5-.5 2.8-1.5 3.8s-2.4 1.6-3.8 1.6zm11.9-17.9h6.3v.7h-5.5v9.5h4.6v.7h-4.6v6h5.5v.7h-6.3v-17.6zm19.4 0v.7h-4v16.8h-.8v-16.8h-4v-.7h8.8zm13 0v.7h-4v16.8h-.8v-16.8h-4v-.7h8.8zm5.5 0h6.3v.7h-5.5v9.5h4.6v.7h-4.6v6h5.5v.7h-6.3v-17.6z"/><path class="st2" d="M170.5 244.5c0 1-.1 1.8-.8 2.5-.7.8-1.8 1.2-2.9 1.2-2.1 0-3.9-1.8-3.9-3.8 0-2.2 1.8-3.9 3.9-3.9 1.4 0 2.5.7 3.3 1.8l-.4.3c-.7-1-1.7-1.6-2.9-1.6-1.8 0-3.4 1.6-3.4 3.4 0 1.9 1.5 3.4 3.4 3.4.8 0 1.6-.3 2.2-.8.7-.6.9-1.2.9-2h-2.7v-.5h3.3zm4.9 3.7h-.6l-2.5-3.6h-.2v3.6h-.5v-7.5h.9c.6 0 1.2 0 1.7.4s.8 1 .8 1.6c0 1.3-.9 2-2.2 2l2.6 3.5zm-2.6-4.1c.5 0 .9 0 1.3-.3s.5-.7.5-1.2c0-.6-.3-1.1-.8-1.4-.4-.2-.9-.2-1.4-.2h-.3v3.1h.7zm4.5 1.6l-1 2.5h-.5l3.2-7.8 3.2 7.8h-.5l-1-2.5h-3.4zm1.7-4.1l-1.5 3.6h3l-1.5-3.6zm4.5 6.6h-.5v-7.5h1.3c.6 0 1.2 0 1.6.4.5.4.7 1 .7 1.6 0 .5-.2 1.1-.6 1.5-.5.4-1.1.5-1.7.5h-.9v3.5zm.9-4.1c.5 0 .9-.1 1.3-.4.3-.3.5-.7.5-1.1 0-.5-.2-.9-.6-1.2-.4-.3-.9-.3-1.3-.3h-.8v3.1h.9zm8.4-.3v-3.2h.5v7.5h-.5v-3.9h-4.6v3.9h-.5v-7.5h.5v3.2h4.6zm2.6 4.4h-.5v-7.5h.5v7.5zm7.6-6c-.6-.7-1.6-1.2-2.5-1.2-1.9 0-3.4 1.6-3.4 3.5 0 .9.4 1.7 1 2.3.6.6 1.5 1 2.4 1 .9 0 2-.5 2.5-1.2v.7c-.7.6-1.6.9-2.5.9-2.1 0-3.9-1.8-3.9-3.9 0-2.1 1.8-3.9 3.9-3.9.9 0 1.8.4 2.5 1v.8zm4.5-1.6h1.4c1.1 0 2 .2 2.8 1 .8.7 1.2 1.8 1.2 2.8 0 1-.4 2-1.2 2.8-.8.8-1.7 1-2.8 1h-1.4v-7.6zm1.4 7.1c1 0 1.8-.2 2.5-.9.6-.6 1-1.5 1-2.4 0-1-.4-1.9-1.1-2.5-.7-.7-1.5-.8-2.4-.8h-.9v6.6h.9zm5.6-6.6v2.7h3v.5h-3v3.5h3.1v.5h-3.6v-7.5h3.6v.5h-3.1zm8.1.8c-.3-.5-.8-.9-1.5-.9-.8 0-1.4.7-1.4 1.4 0 .8.8 1.1 1.4 1.4l1.4.8c.6.4.9.8.9 1.5 0 1.3-1.1 2.2-2.4 2.2-1.1 0-1.9-.7-2.2-1.6l.4-.2c.3.8.9 1.4 1.8 1.4 1 0 1.9-.8 1.9-1.8 0-.9-.9-1.2-1.5-1.5l-1.4-.7c-.5-.3-.8-.8-.8-1.4 0-1.1.8-1.9 1.9-1.9.8 0 1.5.4 1.8 1.1l-.3.2zm2.4 6.3h-.5v-7.5h.5v7.5zm8.7-3.7c0 1-.1 1.8-.8 2.5-.7.8-1.8 1.2-2.9 1.2-2.1 0-3.9-1.8-3.9-3.8 0-2.2 1.8-3.9 3.9-3.9 1.4 0 2.5.7 3.3 1.8l-.4.3c-.7-1-1.7-1.6-2.9-1.6-1.8 0-3.4 1.6-3.4 3.4 0 1.9 1.5 3.4 3.4 3.4.8 0 1.6-.3 2.2-.8.7-.6.9-1.2.9-2h-2.7v-.5h3.3zm8 3.9l-6.3-6.7v6.5h-.5v-7.6l6.3 6.7v-6.6h.5v7.7zm2.1-7.3v2.7h3v.5h-3v3.5h3.1v.5h-3.6v-7.5h3.6v.5h-3.1zm8.3 7.1h-.5l-2.5-3.6h-.2v3.6h-.5v-7.5h.9c.6 0 1.2 0 1.7.4s.8 1 .8 1.6c0 1.3-.9 2-2.2 2l2.5 3.5zm-2.6-4.1c.5 0 .9 0 1.3-.3s.5-.7.5-1.2c0-.6-.3-1.1-.8-1.4-.4-.2-.9-.2-1.4-.2h-.3v3.1h.7zm-113.8 24.9v-7.5h1.5c.6 0 1.1 0 1.6.4s.6 1 .6 1.6c0 .7-.3 1.2-.9 1.5.9.2 1.6.9 1.6 1.9 0 .6-.2 1.2-.7 1.6-.5.5-1.1.5-1.8.5h-1.9zm.5-4.2h.8c.5 0 .9 0 1.4-.3.4-.3.6-.7.6-1.2s-.2-1-.6-1.2c-.4-.2-.9-.2-1.3-.2h-.8v2.9zm0 3.7h1.2c.5 0 1.1 0 1.5-.3.5-.3.7-.8.7-1.3 0-.6-.3-1.1-.8-1.4-.5-.2-1.1-.2-1.6-.2h-1.1v3.2zm5.6-6.6v2.7h3v.5h-3v3.5h3.1v.5h-3.6v-7.5h3.6v.5h-3.1zm9.7 2.7v-3.2h.5v7.5h-.5v-3.9h-4.6v3.9h-.5v-7.5h.5v3.2h4.6zm2.8 1.9l-1 2.5h-.5l3.2-7.8 3.2 7.8h-.5l-1-2.5h-3.4zm1.7-4.1l-1.5 3.6h3l-1.5-3.6zm10.8 6.8l-6.3-6.7v6.5h-.5v-7.6l6.3 6.7v-6.6h.5v7.7zm7.6-6.3c-.6-.7-1.6-1.2-2.5-1.2-1.9 0-3.4 1.6-3.4 3.5 0 .9.4 1.7 1 2.3.6.6 1.5 1 2.4 1 .9 0 2-.5 2.5-1.2v.7c-.7.6-1.6.9-2.5.9-2.1 0-3.9-1.8-3.9-3.9 0-2.1 1.8-3.9 3.9-3.9.9 0 1.8.4 2.5 1v.8zm1.9-1v2.7h3v.5h-3v3.5h3.1v.5h-3.6v-7.5h3.6v.5h-3.1zm11.7 7.1h-.5v-7.5h.5v7.5zm8.4.2l-6.3-6.7v6.5h-.5v-7.6l6.3 6.7v-6.6h.5v7.7zm5.1-6.6c-.3-.5-.8-.9-1.5-.9-.8 0-1.4.7-1.4 1.4 0 .8.8 1.1 1.4 1.4l1.4.8c.6.4.9.8.9 1.5 0 1.3-1.1 2.2-2.4 2.2-1.1 0-1.9-.7-2.2-1.6l.4-.2c.3.8.9 1.4 1.8 1.4 1 0 1.9-.8 1.9-1.8 0-.9-.9-1.2-1.5-1.5l-1.4-.7c-.5-.3-.8-.8-.8-1.4 0-1.1.8-1.9 1.9-1.9.8 0 1.5.4 1.8 1.1l-.3.2zm3.7 6.4h-.5v-7.1h-2v-.5h4.4v.5h-2v7.1zm2.7-2.5l-1 2.5h-.5l3.2-7.8 3.2 7.8h-.5l-1-2.5h-3.4zm1.7-4.1l-1.5 3.6h3l-1.5-3.6zm11.1 2.9c0 1-.1 1.8-.8 2.5-.7.8-1.8 1.2-2.9 1.2-2.1 0-3.9-1.8-3.9-3.8 0-2.2 1.8-3.9 3.9-3.9 1.4 0 2.5.7 3.3 1.8l-.4.3c-.7-1-1.7-1.6-2.9-1.6-1.8 0-3.4 1.6-3.4 3.4 0 1.9 1.5 3.4 3.4 3.4.8 0 1.6-.3 2.2-.8.7-.6.9-1.2.9-2h-2.7v-.5h3.3zm4.9 3.7h-.6l-2.5-3.6h-.2v3.6h-.5v-7.5h.9c.6 0 1.2 0 1.7.4s.8 1 .8 1.6c0 1.3-.9 2-2.2 2l2.6 3.5zm-2.7-4.1c.5 0 .9 0 1.3-.3s.5-.7.5-1.2c0-.6-.3-1.1-.8-1.4-.4-.2-.9-.2-1.4-.2h-.3v3.1h.7zm4.6 1.6l-1 2.5h-.5l3.2-7.8 3.2 7.8h-.5l-1-2.5h-3.4zm1.6-4.1l-1.5 3.6h3l-1.5-3.6zm10.4.3l-2.7 6.5-2.6-6.5-1.3 6.2h-.5l1.6-7.8 2.8 6.9 2.8-6.9 1.6 7.8h-.5l-1.2-6.2zm16.3 2.6c0 1-.1 1.8-.8 2.5-.7.8-1.8 1.2-2.9 1.2-2.1 0-3.9-1.8-3.9-3.8 0-2.2 1.8-3.9 3.9-3.9 1.4 0 2.5.7 3.3 1.8l-.4.3c-.7-1-1.7-1.6-2.9-1.6-1.8 0-3.4 1.6-3.4 3.4 0 1.9 1.5 3.4 3.4 3.4.8 0 1.6-.3 2.2-.8.7-.6.9-1.2.9-2h-2.7v-.5h3.3zm1.7 3.7h-.5v-7.5h.5v7.5zm3.3 0h-.5v-7.1h-2v-.5h4.4v.5h-2v7.1zm7.9-4.4v-3.2h.5v7.5h-.5v-3.9h-4.6v3.9h-.5v-7.5h.5v3.2h4.6zm6.6-3.2h.5v4.7c0 .8 0 1.4-.5 2.1-.5.6-1.3.9-2.1.9s-1.5-.3-2.1-.9c-.5-.6-.5-1.3-.5-2.1v-4.7h.5v4.6c0 .7 0 1.4.4 1.9s1.1.7 1.7.7c.6 0 1.3-.2 1.7-.7.4-.5.4-1.2.4-1.9v-4.6zm2.1 7.6v-7.5h1.5c.6 0 1.1 0 1.6.4s.6 1 .6 1.6c0 .7-.3 1.2-.9 1.5.9.2 1.6.9 1.6 1.9 0 .6-.2 1.2-.7 1.6-.5.5-1.1.5-1.8.5h-1.9zm.4-4.2h.8c.5 0 .9 0 1.4-.3s.6-.7.6-1.2-.2-1-.6-1.2c-.4-.2-.9-.2-1.3-.2h-.8v2.9zm0 3.7h1.2c.5 0 1.1 0 1.5-.3.5-.3.7-.8.7-1.3 0-.6-.3-1.1-.8-1.4-.5-.2-1.1-.2-1.6-.2h-1.1v3.2z"/><path class="st3" d="M173.1 254.4c-.4-.4-.8-.6-1.3-.6-.9 0-1.5.7-1.5 1.6 0 .8.6 1.6 1.5 1.6.5 0 1-.3 1.4-.7v.5c-.4.3-.8.5-1.3.5-1.1 0-1.9-.9-1.9-1.9 0-1.1.8-1.9 1.9-1.9.5 0 .9.1 1.3.5v.4zm1.4-3.7v3.5c.2-.4.6-.7 1.1-.7.9 0 1.2.6 1.2 1.5v2.2h-.4v-2.2c0-.7-.1-1.2-.9-1.2-.9 0-1.1.9-1.1 1.6v1.8h-.4v-6.6h.5zm3.5 4.8c0 .9.6 1.6 1.5 1.6.6 0 1-.3 1.3-.8l.3.2c-.3.6-.9 1-1.6 1-1.1 0-1.8-.9-1.8-1.9 0-1 .7-1.9 1.8-1.9s1.8.9 1.8 2h-3.3zm2.8-.4c-.1-.7-.6-1.3-1.4-1.3-.7 0-1.4.6-1.4 1.3h2.8zm1.6-.9c.2-.4.6-.7 1.1-.7.9 0 1.2.6 1.2 1.5v2.2h-.4v-2.2c0-.7-.1-1.2-.9-1.2-.9 0-1.1.9-1.1 1.6v1.8h-.4v-3.7h.4v.7zm4.2-1.8c0 .2-.1.3-.3.3-.2 0-.3-.1-.3-.3 0-.2.1-.3.3-.3.2-.1.3.1.3.3zm-.1 4.9h-.4v-3.7h.4v3.7zm2.9-3c-.1-.3-.4-.4-.6-.4-.3 0-.6.3-.6.6 0 .9 1.8.5 1.8 1.8 0 .7-.5 1.1-1.2 1.1-.6 0-1.1-.4-1.3-1l.4-.1c.1.4.4.7.9.7s.8-.4.8-.8c0-.5-.4-.6-.7-.7-.5-.2-1.1-.4-1.1-1s.5-.9 1-.9c.4 0 .8.2.9.6l-.3.1zm1.4 1.2c0 .9.6 1.6 1.5 1.6.6 0 1-.3 1.3-.8l.3.2c-.3.6-.9 1-1.6 1-1.1 0-1.8-.9-1.8-1.9 0-1 .7-1.9 1.8-1.9s1.8.9 1.8 2h-3.3zm2.9-.4c-.1-.7-.6-1.3-1.4-1.3-.7 0-1.4.6-1.4 1.3h2.8zm5.1-2.5h.4l-.8 2.6c-.1.3-.2.6.3.6.7 0 1.4-1.1 1.4-2 0-1.3-1.2-2.2-2.4-2.2-1.5 0-2.7 1.3-2.7 2.8s1.3 2.7 2.7 2.7c.9 0 1.7-.4 2.2-1.1h.4c-.4.8-1.4 1.4-2.6 1.4-1.7 0-3-1.4-3-3.1 0-1.7 1.4-3.1 3-3.1 1.5 0 2.7 1.1 2.7 2.6 0 1.3-1 2.3-1.9 2.3-.3 0-.5-.1-.6-.4-.3.3-.7.4-1 .4-.7 0-1.1-.5-1.1-1.2 0-1.1.7-2.5 1.9-2.5.4 0 .7.2 1 .5l.1-.3zm-.7 2.2l.4-1.2c.1-.3-.2-.9-.8-.9-.8 0-1.5 1.3-1.5 2.1 0 .5.3.9.8.9s.9-.5 1.1-.9zm6-.4c-.4-.4-.8-.6-1.3-.6-.9 0-1.5.7-1.5 1.6 0 .8.6 1.6 1.5 1.6.5 0 1-.3 1.4-.7v.5c-.4.3-.8.5-1.3.5-1.1 0-1.9-.9-1.9-1.9 0-1.1.8-1.9 1.9-1.9.5 0 .9.1 1.3.5v.4zm2.5-.1c-.1-.3-.4-.4-.6-.4-.3 0-.6.3-.6.6 0 .9 1.8.5 1.8 1.8 0 .7-.5 1.1-1.2 1.1-.6 0-1.1-.4-1.3-1l.4-.1c.1.4.4.7.9.7s.8-.4.8-.8c0-.5-.4-.6-.7-.7-.5-.2-1.1-.4-1.1-1s.5-.9 1-.9c.4 0 .8.2.9.6l-.3.1zm1.8-.1c.3-.5.9-.7 1.4-.7 1.1 0 1.8.9 1.8 2s-.7 1.9-1.8 1.9c-.6 0-1.1-.2-1.4-.7v2.8h-.4v-5.8h.4v.5zm0 1.3c0 .9.6 1.5 1.5 1.5s1.4-.7 1.4-1.5-.5-1.6-1.4-1.6c-1-.1-1.5.7-1.5 1.6zm7.3 1.8h-.4v-.7c-.3.5-.9.7-1.4.7-1.1 0-1.8-.9-1.8-1.9 0-1.1.7-1.9 1.8-1.9.6 0 1.1.3 1.4.7v-.6h.4v3.7zm-3.2-1.9c0 .8.6 1.6 1.4 1.6.9 0 1.4-.8 1.4-1.6 0-.9-.6-1.5-1.5-1.5-.7-.1-1.3.7-1.3 1.5zm7.7 4h-.4v-2.8c-.3.5-.9.7-1.4.7-1.1 0-1.8-.8-1.8-1.9 0-1.1.7-2 1.8-2 .5 0 1.1.3 1.4.7v-.7h.4v6zm-3.2-3.9c0 .9.6 1.5 1.5 1.5s1.4-.7 1.4-1.5-.5-1.6-1.4-1.6c-1-.1-1.5.7-1.5 1.6zm7-1.9v2.2c0 .4 0 .7-.2 1.1-.3.3-.7.5-1.1.5s-.8-.2-1.1-.5c-.2-.3-.2-.7-.2-1.1v-2.2h.4v2.1c0 .7.1 1.3 1 1.3s1-.6 1-1.3v-2.1h.2zm1.2 1.9c0 .9.6 1.6 1.5 1.6.6 0 1-.3 1.3-.8l.3.2c-.3.6-.9 1-1.6 1-1.1 0-1.8-.9-1.8-1.9 0-1 .7-1.9 1.8-1.9s1.8.9 1.8 2h-3.3zm2.8-.4c-.1-.7-.6-1.3-1.4-1.3-.7 0-1.4.6-1.4 1.3h2.8zm1.7 2.2h-.4v-3.3h-.4v-.3h.4v-1.3h.4v1.3h.6v.3h-.6v3.3zm1.6 0h-.3v-3.3h-.4v-.3h.4v-1.3h.4v1.3h.6v.3h-.6v3.3zm1.3-1.8c0 .9.6 1.6 1.5 1.6.6 0 1-.3 1.3-.8l.3.2c-.3.6-.9 1-1.6 1-1.1 0-1.8-.9-1.8-1.9 0-1 .7-1.9 1.8-1.9s1.8.9 1.8 2h-3.3zm2.8-.4c-.1-.7-.6-1.3-1.4-1.3-.7 0-1.4.6-1.4 1.3h2.8zm2.2 1.9c0 .2-.1.3-.3.3-.2 0-.3-.1-.3-.3 0-.2.1-.3.3-.3.2 0 .3.1.3.3zm4.3-2.6c-.4-.4-.8-.6-1.3-.6-.9 0-1.5.7-1.5 1.6 0 .8.6 1.6 1.5 1.6.5 0 1-.3 1.4-.7v.5c-.4.3-.8.5-1.3.5-1.1 0-1.9-.9-1.9-1.9 0-1.1.8-1.9 1.9-1.9.5 0 .9.1 1.3.5v.4zm4.3 2.9h-.4v-.7c-.3.5-.9.7-1.4.7-1.1 0-1.8-.9-1.8-1.9 0-1.1.7-1.9 1.8-1.9.6 0 1.1.3 1.4.7v-.6h.4v3.7zm-3.3-1.9c0 .8.6 1.6 1.4 1.6.9 0 1.5-.8 1.5-1.6 0-.9-.6-1.5-1.5-1.5-.8-.1-1.4.7-1.4 1.5z"/><circle class="st3" cx="183.5" cy="265" r="2.3"/><circle class="st3" cx="244.5" cy="265" r="2.3"/></svg>