<?xml version="1.0" encoding="utf-8"?>
<!-- Generator: Adobe Illustrator 18.1.1, SVG Export Plug-In . SVG Version: 6.00 Build 0)  -->
<!DOCTYPE svg PUBLIC "-//W3C//DTD SVG 1.1//EN" "http://www.w3.org/Graphics/SVG/1.1/DTD/svg11.dtd">
<svg version="1.1" id="Layer_1" xmlns="http://www.w3.org/2000/svg" xmlns:xlink="http://www.w3.org/1999/xlink" x="0px" y="0px"
	 viewBox="0 0 827.9 719.4" style="enable-background:new 0 0 827.9 719.4;" xml:space="preserve">
<style type="text/css">
	.st0{opacity:0.8;fill:#4D4D4D;}
	.st1{fill:#C886F7;stroke:#C886F7;stroke-width:2.0144;stroke-miterlimit:10;}
	.st2{fill:#C886F7;}
	.st3{fill:#BBA3C1;}
	.st4{fill:none;}
</style>
<g>
	<defs>
		<circle id="SVGID_1_" cx="387.2" cy="285.4" r="270.9"/>
	</defs>
	<clipPath id="SVGID_2_">
		<use xlink:href="#SVGID_1_"  style="overflow:visible;"/>
	</clipPath>
	<g transform="matrix(1 0 0 1 0 -5.960464e-08)" style="clip-path:url(#SVGID_2_);">
		
			<image style="overflow:visible;" width="5184" height="3456" xlink:href="../../../../../../../Desktop/IMG_6884.jpg"  transform="matrix(0.1561 5.350674e-03 -5.350674e-03 0.1561 18.4919 0)">
		</image>
	</g>
</g>
<ellipse class="st0" cx="387.9" cy="285.6" rx="281.6" ry="277.7"/>
<g>
	<path class="st1" d="M64.8,244.5h-0.5c-3.2,0-6.2-0.8-9-2.5c-2.8-1.7-5-3.9-6.6-6.8c-1.6-2.8-2.4-5.8-2.4-9c0-5,1.8-9.3,5.4-12.9
		c3.6-3.6,7.9-5.4,12.9-5.4c3.4,0,6.5,0.9,9.6,2.6v1.7c-3-2-6.1-3-9.6-3c-4.6,0-8.6,1.7-11.9,5c-3.3,3.3-4.9,7.3-4.9,11.9
		c0,4.6,1.6,8.6,4.9,11.9c3.3,3.3,7.2,5,11.9,5c3.4,0,6.6-1,9.6-3v1.7C71.3,243.6,68.2,244.5,64.8,244.5z"/>
	<path class="st1" d="M112.8,208.7h1.6V244h-1.6v-13.5H88.6V244h-1.6v-35.3h1.6v20.5h24.2V208.7z"/>
	<path class="st1" d="M128,208.7h12.7v1.4h-11.1v19.2h9.3v1.4h-9.3v12h11.1v1.4H128V208.7z"/>
	<path class="st1" d="M178,208.7h1.4v35.8l-26-32V244H152v-35.8l26,31.9V208.7z"/>
	<path class="st1" d="M193.2,208.7h1.6V244h-1.6V208.7z"/>
	<path class="st1" d="M220,210.5c-1.2-0.8-2.6-1.1-4.2-1.1c-1.5,0-2.8,0.5-3.9,1.4c-1.1,1-1.6,2.3-1.6,3.9v0.2c0,2,1.1,3.8,3.3,5.4
		c0.9,0.7,2,1.4,3.2,2c1.2,0.7,2.4,1.4,3.5,2.2c1.2,0.8,2.2,1.6,3.2,2.4c1,0.9,1.7,1.9,2.4,3.2c0.6,1.3,0.9,2.6,0.9,4.1v0.5
		c0,3-1,5.4-3,7.1c-2,1.8-4.5,2.6-7.5,2.6c-3.9,0-7-1.6-9.1-4.8v-2.5c0.8,1.8,2,3.2,3.6,4.4c1.6,1.1,3.6,1.7,5.9,1.7
		c2.4,0,4.4-0.8,6.1-2.3c1.7-1.5,2.6-3.5,2.6-6v-0.3c0-1.6-0.4-3-1.2-4.3c-0.8-1.3-1.8-2.4-3.1-3.2c-1.2-0.8-2.6-1.7-4-2.6
		c-1.4-0.9-2.8-1.8-4-2.5c-1.2-0.8-2.2-1.8-3.1-3c-0.8-1.2-1.2-2.5-1.2-3.9v-0.3c0-2.2,0.7-3.9,2.1-5c1.4-1.2,3.2-1.7,5.2-1.7
		c2.9,0,5.2,1.1,6.9,3.2v2.4C222.2,212.3,221.2,211.3,220,210.5z"/>
	<path class="st1" d="M238.7,208.7h12.7v1.4h-11.1v19.2h9.3v1.4h-9.3v12h11.1v1.4h-12.7V208.7z"/>
	<path class="st1" d="M297,210.5c-1.2-0.8-2.6-1.1-4.2-1.1c-1.5,0-2.8,0.5-3.9,1.4c-1.1,1-1.6,2.3-1.6,3.9v0.2c0,2,1.1,3.8,3.3,5.4
		c0.9,0.7,2,1.4,3.2,2c1.2,0.7,2.4,1.4,3.5,2.2c1.2,0.8,2.2,1.6,3.2,2.4c1,0.9,1.7,1.9,2.4,3.2c0.6,1.3,0.9,2.6,0.9,4.1v0.5
		c0,3-1,5.4-3,7.1c-2,1.8-4.5,2.6-7.5,2.6c-3.9,0-7-1.6-9.1-4.8v-2.5c0.8,1.8,2,3.2,3.6,4.4c1.6,1.1,3.6,1.7,5.9,1.7
		c2.4,0,4.4-0.8,6.1-2.3c1.7-1.5,2.6-3.5,2.6-6v-0.3c0-1.6-0.4-3-1.2-4.3c-0.8-1.3-1.8-2.4-3.1-3.2c-1.2-0.8-2.6-1.7-4-2.6
		c-1.4-0.9-2.8-1.8-4-2.5c-1.2-0.8-2.2-1.8-3.1-3c-0.8-1.2-1.2-2.5-1.2-3.9v-0.3c0-2.2,0.7-3.9,2.1-5c1.4-1.2,3.2-1.7,5.2-1.7
		c2.9,0,5.2,1.1,6.9,3.2v2.4C299.2,212.3,298.3,211.3,297,210.5z"/>
	<path class="st1" d="M326.6,244.6h-0.5c-2.9,0-5.3-1-7.3-3c-2-2-3-4.5-3-7.6v-25.4h1.6V234c0,2.7,0.9,4.9,2.6,6.6
		c1.7,1.8,3.9,2.6,6.4,2.6s4.7-0.9,6.4-2.6c1.7-1.7,2.6-4,2.6-6.7v-25.3h1.6v25.3c0,3.1-1,5.6-3,7.6
		C331.8,243.6,329.4,244.6,326.6,244.6z"/>
	<path class="st1" d="M386.7,208.7V244h-1.6v-33.5l-16.7,34.1l-16.6-34.1V244h-1.4v-35.3h2.3l15.9,32.6l15.9-32.6H386.7z"/>
	<path class="st1" d="M436.5,208.7V244H435v-33.5l-16.7,34.1l-16.6-34.1V244h-1.4v-35.3h2.3l15.9,32.6l15.9-32.6H436.5z"/>
	<path class="st1" d="M450.2,208.7h12.7v1.4h-11.1v19.2h9.3v1.4h-9.3v12h11.1v1.4h-12.7V208.7z"/>
	<path class="st1" d="M474.1,208.7h2c3,0,5.7,1.1,8,3.4c2.3,2.2,3.5,4.9,3.5,7.9c0,3-1.2,5.7-3.5,7.9c-2.4,2.2-4.9,3.3-7.6,3.3h-0.3
		l12.1,12.8h-2l-10.7-11.2V244h-1.5V208.7z M475.6,229.8h0.8c2.5,0,4.8-1,6.7-2.9c1.9-1.9,2.9-4.3,2.9-6.9c0-2.7-1-5-3-7
		s-4.3-3-6.9-3h-0.6V229.8z"/>
	<path class="st1" d="M522.9,208.7h1.6c3.3,0,6,1.1,8.3,3.4c2.3,2.2,3.4,4.9,3.4,7.9c0,3-1.2,5.7-3.6,7.9c-2.4,2.2-5,3.3-7.8,3.3
		h-0.4V244h-1.6V208.7z M524.5,229.8h0.4c2.6,0,4.9-1,6.9-2.9c2-1.9,2.9-4.3,2.9-6.9c0-2.7-1-5-3-7s-4.3-3-6.8-3h-0.4V229.8z"/>
	<path class="st1" d="M557.5,207.8l17.7,36.2h-1.6l-6.7-13.5h-18.9l-6.6,13.5h-1.5L557.5,207.8z M557.3,211.1l-8.8,18.1h17.7
		L557.3,211.1z"/>
	<path class="st1" d="M618.4,226.3c0,2.8-0.7,5.5-2,8c-1.3,2.6-3,4.7-5.2,6.4l3.8,3.8H613l-2.9-2.9c-3,1.9-6.2,2.9-9.8,2.9h-0.5
		c-3.2,0-6.2-0.8-9-2.5s-5-3.9-6.6-6.8c-1.6-2.8-2.4-5.8-2.4-9c0-5,1.8-9.3,5.4-12.9c3.6-3.6,7.9-5.4,13-5.4s9.4,1.8,12.9,5.4
		C616.6,216.9,618.4,221.2,618.4,226.3z M600,243.2c3.2,0,6.2-0.9,9-2.6l-8.1-8h2l7.2,7.2c2-1.6,3.6-3.6,4.8-6
		c1.2-2.4,1.8-4.9,1.8-7.4c0-4.6-1.6-8.6-4.9-11.9c-3.3-3.3-7.2-5-11.9-5c-4.6,0-8.6,1.7-11.9,5c-3.3,3.3-4.9,7.3-4.9,11.9
		c0,4.6,1.6,8.6,4.9,11.9C591.4,241.5,595.4,243.2,600,243.2z"/>
	<path class="st1" d="M641.4,244.6h-0.5c-2.9,0-5.3-1-7.3-3c-2-2-3-4.5-3-7.6v-25.4h1.6V234c0,2.7,0.9,4.9,2.6,6.6
		c1.7,1.8,3.9,2.6,6.4,2.6s4.7-0.9,6.4-2.6c1.7-1.7,2.6-4,2.6-6.7v-25.3h1.6v25.3c0,3.1-1,5.6-3,7.6
		C646.7,243.6,644.2,244.6,641.4,244.6z"/>
	<path class="st1" d="M665.3,208.7H678v1.4h-11.1v19.2h9.3v1.4h-9.3v12H678v1.4h-12.7V208.7z"/>
	<path class="st1" d="M704.4,208.7v1.4h-8V244h-1.6V210h-8.1v-1.4H704.4z"/>
	<path class="st1" d="M730.6,208.7v1.4h-8V244H721V210h-8.1v-1.4H730.6z"/>
	<path class="st1" d="M741.7,208.7h12.7v1.4h-11.1v19.2h9.3v1.4h-9.3v12h11.1v1.4h-12.7V208.7z"/>
</g>
<g>
	<path class="st2" d="M243,701.8v-14h2.8c1.1,0,2.1,0.1,2.9,0.8c0.9,0.7,1.2,1.8,1.2,2.9c0,1.3-0.5,2.2-1.6,2.9
		c1.7,0.4,2.9,1.7,2.9,3.5c0,1.1-0.4,2.2-1.3,2.9c-1,0.8-2,1-3.3,1H243z M243.9,694.1h1.5c0.9,0,1.7,0.1,2.5-0.5
		c0.8-0.6,1-1.3,1-2.2c0-0.9-0.4-1.8-1.2-2.3c-0.7-0.4-1.6-0.4-2.4-0.4h-1.5V694.1z M243.9,701h2.1c1,0,2,0,2.9-0.5
		c0.9-0.6,1.4-1.5,1.4-2.5c0-1-0.5-2-1.5-2.5c-0.9-0.4-2-0.4-3-0.4h-2V701z"/>
	<path class="st2" d="M254.4,688.6v5.1h5.7v0.8h-5.7v6.4h5.8v0.8h-6.7v-14h6.7v0.8H254.4z"/>
	<path class="st2" d="M272.4,693.7v-6h0.9v14h-0.9v-7.2h-8.5v7.2H263v-14h0.9v6H272.4z"/>
	<path class="st2" d="M277.7,697.2l-1.9,4.6h-0.9l5.9-14.5l5.9,14.5h-0.9l-1.9-4.6H277.7z M280.7,689.6l-2.8,6.8h5.5L280.7,689.6z"
		/>
	<path class="st2" d="M300.9,702.3l-11.8-12.5v12.1h-0.9v-14.2L300,700v-12.2h0.9V702.3z"/>
	<path class="st2" d="M315,690.7c-1.1-1.3-3-2.2-4.7-2.2c-3.5,0-6.4,3-6.4,6.5c0,1.6,0.7,3.2,1.9,4.3c1.2,1.1,2.8,1.9,4.5,1.9
		c1.6,0,3.7-0.9,4.7-2.1v1.2c-1.3,1.1-2.9,1.7-4.7,1.7c-3.9,0-7.3-3.3-7.3-7.2c0-4,3.3-7.2,7.3-7.2c1.7,0,3.4,0.7,4.7,1.8V690.7z"/>
	<path class="st2" d="M318.5,688.6v5.1h5.7v0.8h-5.7v6.4h5.8v0.8h-6.7v-14h6.7v0.8H318.5z"/>
	<path class="st2" d="M340.2,701.8h-0.9v-14h0.9V701.8z"/>
	<path class="st2" d="M355.9,702.3l-11.8-12.5v12.1h-0.9v-14.2L355,700v-12.2h0.9V702.3z"/>
	<path class="st2" d="M365.4,690.1c-0.6-1-1.5-1.7-2.8-1.7c-1.5,0-2.6,1.2-2.6,2.7s1.4,2.1,2.5,2.6l2.7,1.4c1.1,0.7,1.6,1.5,1.6,2.8
		c0,2.3-2.1,4.1-4.4,4.1c-2,0-3.5-1.2-4.1-3l0.8-0.4c0.6,1.5,1.7,2.5,3.4,2.5c1.8,0,3.5-1.5,3.5-3.3c0-1.6-1.6-2.3-2.8-2.8l-2.5-1.3
		c-0.9-0.6-1.5-1.4-1.5-2.5c0-2.1,1.5-3.6,3.6-3.6c1.4,0,2.8,0.8,3.4,2L365.4,690.1z"/>
	<path class="st2" d="M372.2,701.8h-0.9v-13.2h-3.6v-0.8h8.1v0.8h-3.6V701.8z"/>
	<path class="st2" d="M377.3,697.2l-1.9,4.6h-0.9l5.9-14.5l5.9,14.5h-0.9l-1.9-4.6H377.3z M380.4,689.6l-2.8,6.8h5.5L380.4,689.6z"
		/>
	<path class="st2" d="M401,695.1c0,1.8-0.2,3.3-1.5,4.7c-1.3,1.5-3.3,2.3-5.3,2.3c-3.9,0-7.2-3.3-7.2-7.1c0-4,3.3-7.3,7.3-7.3
		c2.5,0,4.6,1.3,6.1,3.3l-0.7,0.6c-1.2-1.9-3.1-3-5.4-3c-3.4,0-6.4,3-6.4,6.4c0,3.5,2.9,6.4,6.4,6.4c1.5,0,3-0.6,4.1-1.5
		c1.2-1,1.7-2.2,1.7-3.7h-5v-0.8H401z"/>
	<path class="st2" d="M410.1,701.8h-1l-4.6-6.6h-0.4v6.6h-0.9v-14h1.7c1.1,0,2.3,0,3.2,0.7c1,0.7,1.4,1.8,1.4,3c0,2.4-1.7,3.7-4,3.7
		L410.1,701.8z M405.2,694.3c0.9,0,1.7,0,2.5-0.7c0.7-0.5,1-1.4,1-2.2c0-1-0.5-2.1-1.5-2.5c-0.7-0.4-1.7-0.3-2.5-0.3h-0.6v5.7H405.2
		z"/>
	<path class="st2" d="M413.6,697.2l-1.9,4.6h-0.9l5.9-14.5l5.9,14.5h-0.9l-1.9-4.6H413.6z M416.7,689.6l-2.8,6.8h5.5L416.7,689.6z"
		/>
	<path class="st2" d="M435.9,690.2L435.9,690.2l-4.9,12.1l-4.9-12.1h0l-2.4,11.6h-0.9l3-14.5l5.2,12.8l5.2-12.8l3,14.5h-0.9
		L435.9,690.2z"/>
	<path class="st2" d="M466.3,695.1c0,1.8-0.2,3.3-1.5,4.7c-1.3,1.5-3.3,2.3-5.3,2.3c-3.9,0-7.2-3.3-7.2-7.1c0-4,3.3-7.3,7.3-7.3
		c2.5,0,4.6,1.3,6.1,3.3l-0.7,0.6c-1.2-1.9-3.1-3-5.4-3c-3.4,0-6.4,3-6.4,6.4c0,3.5,2.9,6.4,6.4,6.4c1.5,0,3-0.6,4.1-1.5
		c1.2-1,1.7-2.2,1.7-3.7h-5v-0.8H466.3z"/>
	<path class="st2" d="M469.4,701.8h-0.9v-14h0.9V701.8z"/>
	<path class="st2" d="M475.5,701.8h-0.9v-13.2H471v-0.8h8.1v0.8h-3.6V701.8z"/>
	<path class="st2" d="M490.2,693.7v-6h0.9v14h-0.9v-7.2h-8.5v7.2h-0.9v-14h0.9v6H490.2z"/>
	<path class="st2" d="M502.6,687.8h0.9v8.7c0,1.4,0,2.7-0.9,3.8c-0.9,1.1-2.4,1.6-3.8,1.6c-1.4,0-2.9-0.6-3.8-1.6
		c-0.9-1.2-0.9-2.4-0.9-3.8v-8.7h0.9v8.5c0,1.3,0,2.6,0.7,3.5c0.7,0.9,2.1,1.4,3.1,1.4c1.1,0,2.5-0.5,3.1-1.4
		c0.7-0.9,0.7-2.3,0.7-3.5V687.8z"/>
	<path class="st2" d="M506.3,701.8v-14h2.8c1.1,0,2.1,0.1,2.9,0.8c0.9,0.7,1.2,1.8,1.2,2.9c0,1.3-0.5,2.2-1.6,2.9
		c1.7,0.4,2.9,1.7,2.9,3.5c0,1.1-0.4,2.2-1.3,2.9c-1,0.8-2,1-3.3,1H506.3z M507.2,694.1h1.5c0.9,0,1.7,0.1,2.5-0.5
		c0.8-0.6,1-1.3,1-2.2c0-0.9-0.4-1.8-1.2-2.3c-0.7-0.4-1.6-0.4-2.4-0.4h-1.5V694.1z M507.2,701h2.1c1,0,2,0,2.9-0.5
		c0.9-0.6,1.4-1.5,1.4-2.5c0-1-0.5-2-1.5-2.5c-0.9-0.4-2-0.4-3-0.4h-2V701z"/>
</g>
<g>
	<path class="st3" d="M312.6,666.7c-0.7-0.7-1.4-1.1-2.4-1.1c-1.6,0-2.8,1.4-2.8,2.9s1.2,3,2.8,3c1,0,1.9-0.5,2.5-1.2v0.9
		c-0.7,0.6-1.6,0.9-2.5,0.9c-2,0-3.5-1.6-3.5-3.6c0-2,1.5-3.6,3.5-3.6c0.9,0,1.7,0.3,2.4,0.8V666.7z"/>
	<path class="st3" d="M315.1,659.7v6.4h0c0.4-0.8,1.1-1.2,2-1.2c1.8,0,2.3,1.1,2.3,2.9v4.1h-0.7v-4.1c0-1.2-0.1-2.2-1.6-2.2
		c-1.7,0-2,1.6-2,3v3.4h-0.7v-12.2H315.1z"/>
	<path class="st3" d="M321.7,668.6c0,1.7,1.2,2.9,2.7,2.9c1.1,0,1.9-0.6,2.4-1.6l0.6,0.3c-0.6,1.2-1.7,1.9-3.1,1.9
		c-2,0-3.3-1.6-3.3-3.6c0-1.9,1.3-3.6,3.3-3.6c2.1,0,3.3,1.7,3.3,3.6H321.7z M326.9,668c-0.2-1.3-1.2-2.4-2.6-2.4
		c-1.4,0-2.5,1.1-2.7,2.4H326.9z"/>
	<path class="st3" d="M329.9,666.2L329.9,666.2c0.4-0.8,1.2-1.2,2.1-1.2c1.8,0,2.3,1.1,2.3,2.9v4.1h-0.7v-4.1c0-1.2-0.1-2.2-1.6-2.2
		c-1.7,0-2,1.6-2,3v3.4h-0.7v-6.8h0.7V666.2z"/>
	<path class="st3" d="M337.7,662.8c0,0.3-0.3,0.6-0.6,0.6s-0.6-0.3-0.6-0.6c0-0.3,0.3-0.6,0.6-0.6S337.7,662.5,337.7,662.8z
		 M337.4,671.9h-0.7v-6.8h0.7V671.9z"/>
	<path class="st3" d="M342.8,666.3c-0.2-0.5-0.7-0.8-1.2-0.8c-0.6,0-1.2,0.5-1.2,1.1c0,1.6,3.3,0.8,3.3,3.3c0,1.3-1,2.1-2.2,2.1
		c-1.1,0-2.1-0.7-2.4-1.8l0.7-0.2c0.3,0.8,0.8,1.4,1.7,1.4c0.9,0,1.5-0.7,1.5-1.5c0-0.8-0.7-1.1-1.3-1.3c-0.9-0.3-2-0.7-2-1.9
		c0-1,0.9-1.7,1.9-1.7c0.7,0,1.5,0.5,1.7,1.1L342.8,666.3z"/>
	<path class="st3" d="M345.5,668.6c0,1.7,1.2,2.9,2.7,2.9c1.1,0,1.9-0.6,2.4-1.6l0.6,0.3c-0.6,1.2-1.7,1.9-3.1,1.9
		c-2,0-3.3-1.6-3.3-3.6c0-1.9,1.3-3.6,3.3-3.6c2.1,0,3.3,1.7,3.3,3.6H345.5z M350.8,668c-0.2-1.3-1.2-2.4-2.6-2.4
		c-1.4,0-2.5,1.1-2.7,2.4H350.8z"/>
	<path class="st3" d="M360.3,663.2h0.7l-1.5,4.8c-0.2,0.5-0.3,1.1,0.5,1.1c1.2,0,2.6-2.1,2.6-3.7c0-2.5-2.2-4.1-4.5-4.1
		c-2.7,0-5,2.4-5,5.2s2.3,5.1,5,5.1c1.6,0,3.2-0.7,4-2h0.8c-0.8,1.6-2.6,2.6-4.9,2.6c-3.2,0-5.6-2.6-5.6-5.8c0-3.2,2.5-5.7,5.6-5.7
		c2.8,0,5.1,2,5.1,4.8c0,2.4-1.9,4.3-3.5,4.3c-0.5,0-1-0.3-1.1-0.7c-0.6,0.5-1.3,0.7-1.9,0.7c-1.3,0-2-0.9-2-2.2
		c0-2,1.4-4.6,3.6-4.6c0.7,0,1.4,0.4,1.8,1L360.3,663.2z M359,667.3l0.7-2.2c0.2-0.5-0.4-1.6-1.5-1.6c-1.6,0-2.8,2.4-2.8,3.9
		c0,0.9,0.5,1.7,1.6,1.6C357.9,669.1,358.7,668.1,359,667.3z"/>
	<path class="st3" d="M370.1,666.7c-0.7-0.7-1.4-1.1-2.4-1.1c-1.6,0-2.8,1.4-2.8,2.9s1.2,3,2.8,3c1,0,1.9-0.5,2.5-1.2v0.9
		c-0.7,0.6-1.6,0.9-2.5,0.9c-2,0-3.5-1.6-3.5-3.6c0-2,1.5-3.6,3.5-3.6c0.9,0,1.7,0.3,2.4,0.8V666.7z"/>
	<path class="st3" d="M374.8,666.3c-0.2-0.5-0.7-0.8-1.2-0.8c-0.6,0-1.2,0.5-1.2,1.1c0,1.6,3.3,0.8,3.3,3.3c0,1.3-1,2.1-2.2,2.1
		c-1.1,0-2.1-0.7-2.4-1.8l0.7-0.2c0.3,0.8,0.8,1.4,1.7,1.4c0.9,0,1.5-0.7,1.5-1.5c0-0.8-0.7-1.1-1.3-1.3c-0.9-0.3-2-0.7-2-1.9
		c0-1,0.9-1.7,1.9-1.7c0.7,0,1.5,0.5,1.7,1.1L374.8,666.3z"/>
	<path class="st3" d="M378.2,666.3L378.2,666.3c0.5-0.9,1.6-1.4,2.6-1.4c2.1,0,3.4,1.6,3.4,3.6s-1.3,3.5-3.3,3.5
		c-1.1,0-2.1-0.5-2.6-1.3h0v5.2h-0.7v-10.8h0.7V666.3z M378.1,668.7c0,1.6,1.1,2.8,2.7,2.8c1.6,0,2.7-1.3,2.7-2.9c0-1.6-1-3-2.7-3
		C379.1,665.6,378.1,667,378.1,668.7z"/>
	<path class="st3" d="M391.8,671.9h-0.7v-1.2h0c-0.5,0.9-1.6,1.4-2.6,1.4c-2.1,0-3.4-1.6-3.4-3.6s1.3-3.5,3.3-3.5
		c1.1,0,2.1,0.5,2.6,1.3h0v-1.2h0.7V671.9z M385.8,668.5c0,1.6,1,3,2.7,3c1.7,0,2.7-1.4,2.7-3.1c0-1.6-1.1-2.8-2.7-2.8
		C386.9,665.6,385.8,667,385.8,668.5z"/>
	<path class="st3" d="M400.1,675.9h-0.7v-5.2h0c-0.6,0.9-1.6,1.3-2.6,1.3c-2.1,0-3.3-1.5-3.3-3.5c0-2,1.3-3.6,3.4-3.6
		c1,0,2.1,0.5,2.6,1.4h0v-1.2h0.7V675.9z M394.1,668.7c0,1.6,1.1,2.8,2.7,2.8c1.6,0,2.7-1.3,2.7-2.9c0-1.6-1-3-2.7-3
		C395.1,665.6,394.1,667,394.1,668.7z"/>
	<path class="st3" d="M407.2,665.1v4.1c0,0.7,0,1.4-0.4,2c-0.5,0.6-1.3,0.9-2,0.9c-0.8,0-1.6-0.3-2-0.9c-0.4-0.6-0.4-1.3-0.4-2v-4.1
		h0.7v3.9c0,1.3,0.1,2.5,1.8,2.5c1.6,0,1.8-1.2,1.8-2.5v-3.9H407.2z"/>
	<path class="st3" d="M409.4,668.6c0,1.7,1.2,2.9,2.7,2.9c1.1,0,1.9-0.6,2.4-1.6l0.6,0.3c-0.6,1.2-1.7,1.9-3.1,1.9
		c-2,0-3.3-1.6-3.3-3.6c0-1.9,1.3-3.6,3.3-3.6c2.1,0,3.3,1.7,3.3,3.6H409.4z M414.7,668c-0.2-1.3-1.2-2.4-2.6-2.4
		c-1.4,0-2.5,1.1-2.7,2.4H414.7z"/>
	<path class="st3" d="M417.7,671.9H417v-6.2h-0.8v-0.6h0.8v-2.4h0.7v2.4h1.2v0.6h-1.2V671.9z"/>
	<path class="st3" d="M420.8,671.9h-0.7v-6.2h-0.8v-0.6h0.8v-2.4h0.7v2.4h1.2v0.6h-1.2V671.9z"/>
	<path class="st3" d="M423.1,668.6c0,1.7,1.2,2.9,2.7,2.9c1.1,0,1.9-0.6,2.4-1.6l0.6,0.3c-0.6,1.2-1.7,1.9-3.1,1.9
		c-2,0-3.3-1.6-3.3-3.6c0-1.9,1.3-3.6,3.3-3.6c2.1,0,3.3,1.7,3.3,3.6H423.1z M428.4,668c-0.2-1.3-1.2-2.4-2.6-2.4
		c-1.4,0-2.5,1.1-2.7,2.4H428.4z"/>
	<path class="st3" d="M432.4,671.5c0,0.3-0.3,0.6-0.6,0.6s-0.6-0.3-0.6-0.6s0.3-0.6,0.6-0.6S432.4,671.1,432.4,671.5z"/>
	<path class="st3" d="M440.5,666.7c-0.7-0.7-1.4-1.1-2.4-1.1c-1.6,0-2.8,1.4-2.8,2.9s1.2,3,2.8,3c1,0,1.9-0.5,2.5-1.2v0.9
		c-0.7,0.6-1.6,0.9-2.5,0.9c-2,0-3.5-1.6-3.5-3.6c0-2,1.5-3.6,3.5-3.6c0.9,0,1.7,0.3,2.4,0.8V666.7z"/>
	<path class="st3" d="M448.4,671.9h-0.7v-1.2h0c-0.5,0.9-1.6,1.4-2.6,1.4c-2.1,0-3.4-1.6-3.4-3.6s1.3-3.5,3.3-3.5
		c1.1,0,2.1,0.5,2.6,1.3h0v-1.2h0.7V671.9z M442.3,668.5c0,1.6,1,3,2.7,3c1.7,0,2.7-1.4,2.7-3.1c0-1.6-1.1-2.8-2.7-2.8
		C443.4,665.6,442.3,667,442.3,668.5z"/>
</g>
<circle class="st3" cx="331.9" cy="694.5" r="4.2"/>
<circle class="st3" cx="445.2" cy="694.5" r="4.2"/>
<g>
	<rect x="219.6" y="578.5" class="st4" width="338.9" height="70.6"/>
	<path class="st2" d="M236.5,588.5h-0.6v-9h0.6V588.5z"/>
	<path class="st2" d="M247,588.5h-0.5v-1h0c-0.4,0.7-1.3,1.1-2.1,1.1c-1.7,0-2.7-1.3-2.7-2.9s1-2.9,2.7-2.9c0.9,0,1.7,0.4,2.1,1.1h0
		v-1h0.5V588.5z M242.1,585.6c0,1.3,0.8,2.4,2.2,2.4c1.4,0,2.2-1.2,2.2-2.5c0-1.3-0.9-2.3-2.2-2.3
		C243,583.3,242.1,584.4,242.1,585.6z"/>
	<path class="st2" d="M249.4,583.6L249.4,583.6c0.3-0.5,0.8-0.8,1.4-0.8c0.7,0,1.3,0.4,1.6,1c0.3-0.7,0.9-1,1.6-1
		c1.4,0,1.7,1,1.7,2.2v3.5h-0.5v-3.5c0-0.9-0.1-1.6-1.2-1.6c-1.2,0-1.4,1-1.4,2v3.2H252V585c0-0.9-0.2-1.7-1.2-1.7
		c-1.2,0-1.4,1.2-1.4,2.1v3h-0.5v-5.5h0.5V583.6z"/>
	<path class="st2" d="M266.1,588.5h-0.5v-1h0c-0.4,0.7-1.3,1.1-2.1,1.1c-1.7,0-2.7-1.3-2.7-2.9s1-2.9,2.7-2.9c0.9,0,1.7,0.4,2.1,1.1
		h0v-1h0.5V588.5z M261.3,585.6c0,1.3,0.8,2.4,2.2,2.4c1.4,0,2.2-1.2,2.2-2.5c0-1.3-0.9-2.3-2.2-2.3
		C262.1,583.3,261.3,584.4,261.3,585.6z"/>
	<path class="st2" d="M272.2,588.5h-0.5v-5h-0.6v-0.5h0.6v-2.5c0-0.4,0-1,0.2-1.4c0.3-0.4,0.7-0.7,1.2-0.7c0.2,0,0.3,0,0.5,0.1v0.5
		c-0.1,0-0.3-0.1-0.4-0.1c-0.9,0-0.9,0.9-0.9,1.6v2.4h1.4v0.5h-1.4V588.5z"/>
	<path class="st2" d="M274.6,585.7c0,1.4,0.9,2.3,2.2,2.3c0.9,0,1.6-0.5,2-1.3l0.5,0.3c-0.5,1-1.4,1.5-2.5,1.5
		c-1.6,0-2.7-1.3-2.7-2.9c0-1.5,1.1-2.9,2.7-2.9c1.7,0,2.7,1.3,2.7,2.9H274.6z M278.8,585.2c-0.1-1-1-1.9-2.1-1.9
		c-1.1,0-2.1,0.9-2.2,1.9H278.8z"/>
	<path class="st2" d="M281.2,583.6L281.2,583.6c0.3-0.5,0.8-0.8,1.4-0.8c0.7,0,1.3,0.4,1.6,1c0.3-0.7,0.9-1,1.6-1
		c1.4,0,1.7,1,1.7,2.2v3.5H287v-3.5c0-0.9-0.1-1.6-1.2-1.6c-1.2,0-1.4,1-1.4,2v3.2h-0.5V585c0-0.9-0.2-1.7-1.2-1.7
		c-1.2,0-1.4,1.2-1.4,2.1v3h-0.5v-5.5h0.5V583.6z"/>
	<path class="st2" d="M294.3,588.5h-0.5v-1h0c-0.4,0.7-1.3,1.1-2.1,1.1c-1.7,0-2.7-1.3-2.7-2.9s1-2.9,2.7-2.9c0.9,0,1.7,0.4,2.1,1.1
		h0v-1h0.5V588.5z M289.4,585.6c0,1.3,0.8,2.4,2.2,2.4c1.4,0,2.2-1.2,2.2-2.5c0-1.3-0.9-2.3-2.2-2.3
		C290.3,583.3,289.4,584.4,289.4,585.6z"/>
	<path class="st2" d="M296.7,588.5h-0.5v-9.9h0.5V588.5z"/>
	<path class="st2" d="M298.5,585.7c0,1.4,0.9,2.3,2.2,2.3c0.9,0,1.6-0.5,2-1.3l0.5,0.3c-0.5,1-1.4,1.5-2.5,1.5
		c-1.6,0-2.7-1.3-2.7-2.9c0-1.5,1.1-2.9,2.7-2.9c1.7,0,2.7,1.3,2.7,2.9H298.5z M302.8,585.2c-0.1-1-1-1.9-2.1-1.9
		c-1.1,0-2.1,0.9-2.2,1.9H302.8z"/>
	<path class="st2" d="M315.6,581.3c-0.7-0.9-1.9-1.4-3-1.4c-2.3,0-4.1,1.9-4.1,4.2c0,1.1,0.5,2.1,1.2,2.8c0.8,0.7,1.8,1.2,2.9,1.2
		c1,0,2.4-0.6,3-1.4v0.8c-0.9,0.7-1.9,1.1-3,1.1c-2.5,0-4.7-2.1-4.7-4.6c0-2.6,2.2-4.7,4.7-4.7c1.1,0,2.2,0.4,3,1.2V581.3z"/>
	<path class="st2" d="M322.1,588.5h-0.5v-1h0c-0.4,0.7-1.3,1.1-2.1,1.1c-1.7,0-2.7-1.3-2.7-2.9s1-2.9,2.7-2.9c0.9,0,1.7,0.4,2.1,1.1
		h0v-1h0.5V588.5z M317.2,585.6c0,1.3,0.8,2.4,2.2,2.4c1.4,0,2.2-1.2,2.2-2.5c0-1.3-0.9-2.3-2.2-2.3
		C318.1,583.3,317.2,584.4,317.2,585.6z"/>
	<path class="st2" d="M324.5,583.8L324.5,583.8c0.3-0.6,0.9-1,1.7-1c1.4,0,1.8,0.9,1.8,2.3v3.3h-0.5v-3.3c0-1-0.1-1.8-1.3-1.8
		c-1.4,0-1.6,1.3-1.6,2.4v2.7h-0.5v-5.5h0.5V583.8z"/>
	<path class="st2" d="M334.7,588.5h-0.5v-1h0c-0.4,0.7-1.3,1.1-2.1,1.1c-1.7,0-2.7-1.3-2.7-2.9s1-2.9,2.7-2.9c0.9,0,1.7,0.4,2.1,1.1
		h0v-1h0.5V588.5z M329.8,585.6c0,1.3,0.8,2.4,2.2,2.4c1.4,0,2.2-1.2,2.2-2.5c0-1.3-0.9-2.3-2.2-2.3
		C330.7,583.3,329.8,584.4,329.8,585.6z"/>
	<path class="st2" d="M340.9,587.5L340.9,587.5c-0.4,0.7-1.3,1.1-2.1,1.1c-1.7,0-2.7-1.3-2.7-2.9s1-2.9,2.7-2.9
		c0.9,0,1.7,0.4,2.1,1.1h0v-5.3h0.5v9.9h-0.5V587.5z M340.9,585.6c0-1.3-0.9-2.3-2.2-2.3c-1.3,0-2.1,1.2-2.1,2.4
		c0,1.3,0.8,2.4,2.2,2.4C340.1,588.1,340.9,586.9,340.9,585.6z"/>
	<path class="st2" d="M344.2,581.1c0,0.3-0.2,0.5-0.5,0.5s-0.5-0.2-0.5-0.5c0-0.3,0.2-0.5,0.5-0.5S344.2,580.8,344.2,581.1z
		 M344,588.5h-0.5v-5.5h0.5V588.5z"/>
	<path class="st2" d="M350.9,588.5h-0.5v-1h0c-0.4,0.7-1.3,1.1-2.1,1.1c-1.7,0-2.7-1.3-2.7-2.9s1-2.9,2.7-2.9c0.9,0,1.7,0.4,2.1,1.1
		h0v-1h0.5V588.5z M346.1,585.6c0,1.3,0.8,2.4,2.2,2.4c1.4,0,2.2-1.2,2.2-2.5c0-1.3-0.9-2.3-2.2-2.3
		C346.9,583.3,346.1,584.4,346.1,585.6z"/>
	<path class="st2" d="M353.3,583.8L353.3,583.8c0.3-0.6,0.9-1,1.7-1c1.4,0,1.8,0.9,1.8,2.3v3.3h-0.5v-3.3c0-1-0.1-1.8-1.3-1.8
		c-1.4,0-1.6,1.3-1.6,2.4v2.7h-0.5v-5.5h0.5V583.8z"/>
	<path class="st2" d="M364.1,587.5l2-4.6h0.6l-2.5,5.8l-2.5-5.8h0.6L364.1,587.5z"/>
	<path class="st2" d="M368.5,581.1c0,0.3-0.2,0.5-0.5,0.5s-0.5-0.2-0.5-0.5c0-0.3,0.2-0.5,0.5-0.5S368.5,580.8,368.5,581.1z
		 M368.3,588.5h-0.5v-5.5h0.5V588.5z"/>
	<path class="st2" d="M372.7,583.9c-0.2-0.4-0.5-0.6-1-0.6c-0.5,0-0.9,0.4-0.9,0.9c0,1.3,2.7,0.7,2.7,2.7c0,1-0.8,1.7-1.8,1.7
		c-0.9,0-1.7-0.6-1.9-1.5l0.5-0.2c0.2,0.7,0.6,1.1,1.4,1.1c0.7,0,1.2-0.6,1.2-1.2c0-0.7-0.5-0.9-1.1-1.1c-0.8-0.3-1.6-0.6-1.6-1.5
		c0-0.8,0.7-1.4,1.5-1.4c0.6,0,1.2,0.4,1.4,0.9L372.7,583.9z"/>
	<path class="st2" d="M378.8,582.9v3.3c0,0.6,0,1.1-0.3,1.6c-0.4,0.5-1,0.7-1.7,0.7s-1.3-0.2-1.7-0.7c-0.3-0.5-0.3-1-0.3-1.6v-3.3
		h0.5v3.1c0,1.1,0.1,2,1.5,2c1.3,0,1.5-1,1.5-2v-3.1H378.8z"/>
	<path class="st2" d="M385.4,588.5h-0.5v-1h0c-0.4,0.7-1.3,1.1-2.1,1.1c-1.7,0-2.7-1.3-2.7-2.9s1-2.9,2.7-2.9c0.9,0,1.7,0.4,2.1,1.1
		h0v-1h0.5V588.5z M380.5,585.6c0,1.3,0.8,2.4,2.2,2.4c1.4,0,2.2-1.2,2.2-2.5c0-1.3-0.9-2.3-2.2-2.3
		C381.4,583.3,380.5,584.4,380.5,585.6z"/>
	<path class="st2" d="M387.8,588.5h-0.5v-9.9h0.5V588.5z"/>
	<path class="st2" d="M397.6,584.2c-0.5-0.6-1.2-0.9-2-0.9c-1.3,0-2.3,1.1-2.3,2.4c0,1.3,1,2.4,2.3,2.4c0.8,0,1.5-0.4,2-1v0.7
		c-0.6,0.5-1.3,0.8-2,0.8c-1.6,0-2.8-1.3-2.8-2.9c0-1.6,1.2-2.9,2.9-2.9c0.7,0,1.4,0.2,1.9,0.7V584.2z"/>
	<path class="st2" d="M404.4,585.7c0,1.6-1.3,2.9-2.9,2.9c-1.6,0-2.9-1.3-2.9-2.9c0-1.6,1.3-2.9,2.9-2.9
		C403.1,582.8,404.4,584,404.4,585.7z M399.1,585.7c0,1.3,1,2.4,2.3,2.4c1.4,0,2.4-1,2.4-2.4c0-1.4-1-2.4-2.4-2.4
		C400.1,583.3,399.1,584.4,399.1,585.7z"/>
	<path class="st2" d="M406.2,583.6L406.2,583.6c0.3-0.5,0.8-0.8,1.4-0.8c0.7,0,1.3,0.4,1.6,1c0.3-0.7,0.9-1,1.6-1
		c1.4,0,1.7,1,1.7,2.2v3.5H412v-3.5c0-0.9-0.1-1.6-1.2-1.6c-1.2,0-1.4,1-1.4,2v3.2h-0.5V585c0-0.9-0.2-1.7-1.2-1.7
		c-1.2,0-1.4,1.2-1.4,2.1v3h-0.5v-5.5h0.5V583.6z"/>
	<path class="st2" d="M414.9,583.6L414.9,583.6c0.3-0.5,0.8-0.8,1.4-0.8c0.7,0,1.3,0.4,1.6,1c0.3-0.7,0.9-1,1.6-1
		c1.4,0,1.7,1,1.7,2.2v3.5h-0.5v-3.5c0-0.9-0.1-1.6-1.2-1.6c-1.2,0-1.4,1-1.4,2v3.2h-0.5V585c0-0.9-0.2-1.7-1.2-1.7
		c-1.2,0-1.4,1.2-1.4,2.1v3h-0.5v-5.5h0.5V583.6z"/>
	<path class="st2" d="M427,582.9v3.3c0,0.6,0,1.1-0.3,1.6c-0.4,0.5-1,0.7-1.7,0.7c-0.6,0-1.3-0.2-1.7-0.7c-0.3-0.5-0.3-1-0.3-1.6
		v-3.3h0.5v3.1c0,1.1,0.1,2,1.5,2c1.3,0,1.5-1,1.5-2v-3.1H427z"/>
	<path class="st2" d="M429.3,583.8L429.3,583.8c0.3-0.6,0.9-1,1.7-1c1.4,0,1.8,0.9,1.8,2.3v3.3h-0.5v-3.3c0-1-0.1-1.8-1.3-1.8
		c-1.4,0-1.6,1.3-1.6,2.4v2.7h-0.5v-5.5h0.5V583.8z"/>
	<path class="st2" d="M435.6,581.1c0,0.3-0.2,0.5-0.5,0.5c-0.3,0-0.5-0.2-0.5-0.5c0-0.3,0.2-0.5,0.5-0.5
		C435.4,580.6,435.6,580.8,435.6,581.1z M435.3,588.5h-0.5v-5.5h0.5V588.5z"/>
	<path class="st2" d="M441.7,584.2c-0.5-0.6-1.2-0.9-2-0.9c-1.3,0-2.3,1.1-2.3,2.4c0,1.3,1,2.4,2.3,2.4c0.8,0,1.5-0.4,2-1v0.7
		c-0.6,0.5-1.3,0.8-2,0.8c-1.6,0-2.8-1.3-2.8-2.9c0-1.6,1.2-2.9,2.9-2.9c0.7,0,1.4,0.2,1.9,0.7V584.2z"/>
	<path class="st2" d="M448,588.5h-0.5v-1h0c-0.4,0.7-1.3,1.1-2.1,1.1c-1.7,0-2.7-1.3-2.7-2.9s1-2.9,2.7-2.9c0.9,0,1.7,0.4,2.1,1.1h0
		v-1h0.5V588.5z M443.1,585.6c0,1.3,0.8,2.4,2.2,2.4c1.4,0,2.2-1.2,2.2-2.5c0-1.3-0.9-2.3-2.2-2.3
		C444,583.3,443.1,584.4,443.1,585.6z"/>
	<path class="st2" d="M450.5,588.5h-0.5v-5h-0.6v-0.5h0.6v-2h0.5v2h1v0.5h-1V588.5z"/>
	<path class="st2" d="M457.6,585.7c0,1.6-1.3,2.9-2.9,2.9c-1.6,0-2.9-1.3-2.9-2.9c0-1.6,1.3-2.9,2.9-2.9
		C456.3,582.8,457.6,584,457.6,585.7z M452.4,585.7c0,1.3,1,2.4,2.3,2.4c1.4,0,2.4-1,2.4-2.4c0-1.4-1-2.4-2.4-2.4
		C453.3,583.3,452.4,584.4,452.4,585.7z"/>
	<path class="st2" d="M459.5,583.6L459.5,583.6c0.2-0.5,0.6-0.8,1.2-0.8c0.2,0,0.4,0,0.6,0.1l-0.3,0.5c-0.1-0.1-0.2-0.1-0.4-0.1
		c-1.2,0-1.1,1.5-1.1,2.3v2.8h-0.5v-5.5h0.5V583.6z"/>
	<path class="st2" d="M467.6,587.5l2-4.8l2,4.8l1.9-4.5h0.6l-2.5,5.8l-2-4.8l-1.9,4.8l-2.5-5.8h0.6L467.6,587.5z"/>
	<path class="st2" d="M476,581.1c0,0.3-0.2,0.5-0.5,0.5c-0.3,0-0.5-0.2-0.5-0.5c0-0.3,0.2-0.5,0.5-0.5
		C475.8,580.6,476,580.8,476,581.1z M475.8,588.5h-0.5v-5.5h0.5V588.5z"/>
	<path class="st2" d="M478.4,588.5h-0.5v-5h-0.6v-0.5h0.6v-2h0.5v2h1v0.5h-1V588.5z"/>
	<path class="st2" d="M480.9,578.6v5.2h0c0.3-0.6,0.9-1,1.6-1c1.4,0,1.8,0.9,1.8,2.3v3.3h-0.5v-3.3c0-1-0.1-1.8-1.3-1.8
		c-1.4,0-1.6,1.3-1.6,2.4v2.7h-0.5v-9.9H480.9z"/>
	<path class="st2" d="M490.5,583.9L490.5,583.9c0.4-0.7,1.3-1.1,2.1-1.1c1.7,0,2.7,1.3,2.7,2.9s-1,2.8-2.7,2.8
		c-0.9,0-1.7-0.4-2.1-1.1h0v4.2h-0.5v-8.8h0.5V583.9z M490.4,585.8c0,1.3,0.9,2.3,2.2,2.3c1.3,0,2.2-1.1,2.2-2.3
		c0-1.3-0.8-2.4-2.2-2.4C491.2,583.3,490.4,584.5,490.4,585.8z"/>
	<path class="st2" d="M501.5,588.5H501v-1h0c-0.4,0.7-1.3,1.1-2.1,1.1c-1.7,0-2.7-1.3-2.7-2.9s1-2.9,2.7-2.9c0.9,0,1.7,0.4,2.1,1.1
		h0v-1h0.5V588.5z M496.6,585.6c0,1.3,0.8,2.4,2.2,2.4c1.4,0,2.2-1.2,2.2-2.5c0-1.3-0.9-2.3-2.2-2.3
		C497.5,583.3,496.6,584.4,496.6,585.6z"/>
	<path class="st2" d="M505.7,583.9c-0.2-0.4-0.5-0.6-1-0.6c-0.5,0-0.9,0.4-0.9,0.9c0,1.3,2.7,0.7,2.7,2.7c0,1-0.8,1.7-1.8,1.7
		c-0.9,0-1.7-0.6-1.9-1.5l0.5-0.2c0.2,0.7,0.6,1.1,1.4,1.1c0.7,0,1.2-0.6,1.2-1.2c0-0.7-0.5-0.9-1.1-1.1c-0.8-0.3-1.6-0.6-1.6-1.5
		c0-0.8,0.7-1.4,1.5-1.4c0.6,0,1.2,0.4,1.4,0.9L505.7,583.9z"/>
	<path class="st2" d="M510.2,583.9c-0.2-0.4-0.5-0.6-1-0.6c-0.5,0-0.9,0.4-0.9,0.9c0,1.3,2.7,0.7,2.7,2.7c0,1-0.8,1.7-1.8,1.7
		c-0.9,0-1.7-0.6-1.9-1.5l0.5-0.2c0.2,0.7,0.6,1.1,1.4,1.1c0.7,0,1.2-0.6,1.2-1.2c0-0.7-0.5-0.9-1.1-1.1c-0.8-0.3-1.6-0.6-1.6-1.5
		c0-0.8,0.7-1.4,1.5-1.4c0.6,0,1.2,0.4,1.4,0.9L510.2,583.9z"/>
	<path class="st2" d="M513.3,581.1c0,0.3-0.2,0.5-0.5,0.5c-0.3,0-0.5-0.2-0.5-0.5c0-0.3,0.2-0.5,0.5-0.5
		C513.1,580.6,513.3,580.8,513.3,581.1z M513.1,588.5h-0.5v-5.5h0.5V588.5z"/>
	<path class="st2" d="M520.4,585.7c0,1.6-1.3,2.9-2.9,2.9c-1.6,0-2.9-1.3-2.9-2.9c0-1.6,1.3-2.9,2.9-2.9
		C519.1,582.8,520.4,584,520.4,585.7z M515.2,585.7c0,1.3,1,2.4,2.3,2.4c1.4,0,2.4-1,2.4-2.4c0-1.4-1-2.4-2.4-2.4
		C516.2,583.3,515.2,584.4,515.2,585.7z"/>
	<path class="st2" d="M522.3,583.8L522.3,583.8c0.3-0.6,0.9-1,1.7-1c1.4,0,1.8,0.9,1.8,2.3v3.3h-0.5v-3.3c0-1-0.1-1.8-1.3-1.8
		c-1.4,0-1.6,1.3-1.6,2.4v2.7h-0.5v-5.5h0.5V583.8z"/>
	<path class="st2" d="M531.9,588.5h-0.5v-5h-0.6v-0.5h0.6v-2.5c0-0.4,0-1,0.2-1.4c0.3-0.4,0.7-0.7,1.2-0.7c0.2,0,0.3,0,0.5,0.1v0.5
		c-0.1,0-0.3-0.1-0.4-0.1c-0.9,0-0.9,0.9-0.9,1.6v2.4h1.4v0.5h-1.4V588.5z"/>
	<path class="st2" d="M539.5,585.7c0,1.6-1.3,2.9-2.9,2.9c-1.6,0-2.9-1.3-2.9-2.9c0-1.6,1.3-2.9,2.9-2.9
		C538.2,582.8,539.5,584,539.5,585.7z M534.2,585.7c0,1.3,1,2.4,2.3,2.4c1.4,0,2.4-1,2.4-2.4c0-1.4-1-2.4-2.4-2.4
		C535.2,583.3,534.2,584.4,534.2,585.7z"/>
	<path class="st2" d="M541.3,583.6L541.3,583.6c0.2-0.5,0.6-0.8,1.2-0.8c0.2,0,0.4,0,0.6,0.1l-0.3,0.5c-0.1-0.1-0.2-0.1-0.4-0.1
		c-1.2,0-1.1,1.5-1.1,2.3v2.8h-0.5v-5.5h0.5V583.6z"/>
	<path class="st2" d="M226.7,598.6c-0.5-0.6-1.2-0.9-2-0.9c-1.3,0-2.3,1.1-2.3,2.4c0,1.3,1,2.4,2.3,2.4c0.8,0,1.5-0.4,2-1v0.7
		c-0.6,0.5-1.3,0.8-2,0.8c-1.6,0-2.8-1.3-2.8-2.9c0-1.6,1.2-2.9,2.9-2.9c0.7,0,1.4,0.2,1.9,0.7V598.6z"/>
	<path class="st2" d="M233.4,600.1c0,1.6-1.3,2.9-2.9,2.9c-1.6,0-2.9-1.3-2.9-2.9c0-1.6,1.3-2.9,2.9-2.9
		C232.1,597.2,233.4,598.4,233.4,600.1z M228.1,600.1c0,1.3,1,2.4,2.3,2.4c1.4,0,2.4-1,2.4-2.4c0-1.4-1-2.4-2.4-2.4
		C229.1,597.7,228.1,598.8,228.1,600.1z"/>
	<path class="st2" d="M235.2,598.2L235.2,598.2c0.3-0.6,0.9-1,1.7-1c1.4,0,1.8,0.9,1.8,2.3v3.3h-0.5v-3.3c0-1-0.1-1.8-1.3-1.8
		c-1.4,0-1.6,1.3-1.6,2.4v2.7h-0.5v-5.5h0.5V598.2z"/>
	<path class="st2" d="M244.8,598.6c-0.5-0.6-1.2-0.9-2-0.9c-1.3,0-2.3,1.1-2.3,2.4c0,1.3,1,2.4,2.3,2.4c0.8,0,1.5-0.4,2-1v0.7
		c-0.6,0.5-1.3,0.8-2,0.8c-1.6,0-2.8-1.3-2.8-2.9c0-1.6,1.2-2.9,2.9-2.9c0.7,0,1.4,0.2,1.9,0.7V598.6z"/>
	<path class="st2" d="M246.3,600.1c0,1.4,0.9,2.3,2.2,2.3c0.9,0,1.6-0.5,2-1.3l0.5,0.3c-0.5,1-1.4,1.5-2.5,1.5
		c-1.6,0-2.7-1.3-2.7-2.9c0-1.5,1.1-2.9,2.7-2.9c1.7,0,2.7,1.3,2.7,2.9H246.3z M250.6,599.6c-0.1-1-1-1.9-2.1-1.9
		c-1.1,0-2.1,0.9-2.2,1.9H250.6z"/>
	<path class="st2" d="M253,598.3L253,598.3c0.4-0.7,1.3-1.1,2.1-1.1c1.7,0,2.7,1.3,2.7,2.9s-1,2.8-2.7,2.8c-0.9,0-1.7-0.4-2.1-1.1h0
		v4.2h-0.5v-8.8h0.5V598.3z M252.9,600.2c0,1.3,0.9,2.3,2.2,2.3c1.3,0,2.2-1.1,2.2-2.3c0-1.3-0.8-2.4-2.2-2.4
		C253.7,597.7,252.9,598.9,252.9,600.2z"/>
	<path class="st2" d="M259.7,602.8h-0.5v-5h-0.6v-0.5h0.6v-2h0.5v2h1v0.5h-1V602.8z"/>
	<path class="st2" d="M265.5,597.3v3.3c0,0.6,0,1.1-0.3,1.6c-0.4,0.5-1,0.7-1.7,0.7s-1.3-0.2-1.7-0.7c-0.3-0.5-0.3-1-0.3-1.6v-3.3
		h0.5v3.1c0,1.1,0.1,2,1.5,2c1.3,0,1.5-1,1.5-2v-3.1H265.5z"/>
	<path class="st2" d="M272.2,602.8h-0.5v-1h0c-0.4,0.7-1.3,1.1-2.1,1.1c-1.7,0-2.7-1.3-2.7-2.9s1-2.9,2.7-2.9c0.9,0,1.7,0.4,2.1,1.1
		h0v-1h0.5V602.8z M267.3,600c0,1.3,0.8,2.4,2.2,2.4c1.4,0,2.2-1.2,2.2-2.5c0-1.3-0.9-2.3-2.2-2.3
		C268.2,597.7,267.3,598.8,267.3,600z"/>
	<path class="st2" d="M274.6,602.8H274V593h0.5V602.8z"/>
	<path class="st2" d="M285,602.8h-0.5v-1h0c-0.4,0.7-1.3,1.1-2.1,1.1c-1.7,0-2.7-1.3-2.7-2.9s1-2.9,2.7-2.9c0.9,0,1.7,0.4,2.1,1.1h0
		v-1h0.5V602.8z M280.1,600c0,1.3,0.8,2.4,2.2,2.4c1.4,0,2.2-1.2,2.2-2.5c0-1.3-0.9-2.3-2.2-2.3C281,597.7,280.1,598.8,280.1,600z"
		/>
	<path class="st2" d="M287.4,598.2L287.4,598.2c0.3-0.6,0.9-1,1.7-1c1.4,0,1.8,0.9,1.8,2.3v3.3h-0.5v-3.3c0-1-0.1-1.8-1.3-1.8
		c-1.4,0-1.6,1.3-1.6,2.4v2.7h-0.5v-5.5h0.5V598.2z"/>
	<path class="st2" d="M297.1,601.9L297.1,601.9c-0.4,0.7-1.3,1.1-2.1,1.1c-1.7,0-2.7-1.3-2.7-2.9s1-2.9,2.7-2.9
		c0.9,0,1.7,0.4,2.1,1.1h0V593h0.5v9.9h-0.5V601.9z M297.1,600c0-1.3-0.9-2.3-2.2-2.3c-1.3,0-2.1,1.2-2.1,2.4c0,1.3,0.8,2.4,2.2,2.4
		C296.3,602.5,297.1,601.3,297.1,600z"/>
	<path class="st2" d="M307.4,598.6c-0.5-0.6-1.2-0.9-2-0.9c-1.3,0-2.3,1.1-2.3,2.4c0,1.3,1,2.4,2.3,2.4c0.8,0,1.5-0.4,2-1v0.7
		c-0.6,0.5-1.3,0.8-2,0.8c-1.6,0-2.8-1.3-2.8-2.9c0-1.6,1.2-2.9,2.9-2.9c0.7,0,1.4,0.2,1.9,0.7V598.6z"/>
	<path class="st2" d="M309.4,598L309.4,598c0.2-0.5,0.6-0.8,1.2-0.8c0.2,0,0.4,0,0.6,0.1l-0.3,0.5c-0.1-0.1-0.2-0.1-0.4-0.1
		c-1.2,0-1.1,1.5-1.1,2.3v2.8h-0.5v-5.5h0.5V598z"/>
	<path class="st2" d="M312.2,600.1c0,1.4,0.9,2.3,2.2,2.3c0.9,0,1.6-0.5,2-1.3l0.5,0.3c-0.5,1-1.4,1.5-2.5,1.5
		c-1.6,0-2.7-1.3-2.7-2.9c0-1.5,1.1-2.9,2.7-2.9c1.7,0,2.7,1.3,2.7,2.9H312.2z M316.5,599.6c-0.1-1-1-1.9-2.1-1.9
		c-1.1,0-2.1,0.9-2.2,1.9H316.5z"/>
	<path class="st2" d="M323.2,602.8h-0.5v-1h0c-0.4,0.7-1.3,1.1-2.1,1.1c-1.7,0-2.7-1.3-2.7-2.9s1-2.9,2.7-2.9c0.9,0,1.7,0.4,2.1,1.1
		h0v-1h0.5V602.8z M318.4,600c0,1.3,0.8,2.4,2.2,2.4c1.4,0,2.2-1.2,2.2-2.5c0-1.3-0.9-2.3-2.2-2.3
		C319.2,597.7,318.4,598.8,318.4,600z"/>
	<path class="st2" d="M325.7,602.8h-0.5v-5h-0.6v-0.5h0.6v-2h0.5v2h1v0.5h-1V602.8z"/>
	<path class="st2" d="M328.6,595.5c0,0.3-0.2,0.5-0.5,0.5s-0.5-0.2-0.5-0.5c0-0.3,0.2-0.5,0.5-0.5S328.6,595.2,328.6,595.5z
		 M328.3,602.8h-0.5v-5.5h0.5V602.8z"/>
	<path class="st2" d="M332.1,601.9l2-4.6h0.6l-2.5,5.8l-2.5-5.8h0.6L332.1,601.9z"/>
	<path class="st2" d="M335.6,600.1c0,1.4,0.9,2.3,2.2,2.3c0.9,0,1.6-0.5,2-1.3l0.5,0.3c-0.5,1-1.4,1.5-2.5,1.5
		c-1.6,0-2.7-1.3-2.7-2.9c0-1.5,1.1-2.9,2.7-2.9c1.7,0,2.7,1.3,2.7,2.9H335.6z M339.9,599.6c-0.1-1-1-1.9-2.1-1.9
		c-1.1,0-2.1,0.9-2.2,1.9H339.9z"/>
	<path class="st2" d="M349.8,601.9L349.8,601.9c-0.4,0.7-1.3,1.1-2.1,1.1c-1.7,0-2.7-1.3-2.7-2.9s1-2.9,2.7-2.9
		c0.9,0,1.7,0.4,2.1,1.1h0V593h0.5v9.9h-0.5V601.9z M349.8,600c0-1.3-0.9-2.3-2.2-2.3c-1.3,0-2.1,1.2-2.1,2.4c0,1.3,0.8,2.4,2.2,2.4
		C349,602.5,349.8,601.3,349.8,600z"/>
	<path class="st2" d="M352.1,600.1c0,1.4,0.9,2.3,2.2,2.3c0.9,0,1.6-0.5,2-1.3l0.5,0.3c-0.5,1-1.4,1.5-2.5,1.5
		c-1.6,0-2.7-1.3-2.7-2.9c0-1.5,1.1-2.9,2.7-2.9c1.7,0,2.7,1.3,2.7,2.9H352.1z M356.4,599.6c-0.1-1-1-1.9-2.1-1.9
		c-1.1,0-2.1,0.9-2.2,1.9H356.4z"/>
	<path class="st2" d="M360.6,598.3c-0.2-0.4-0.5-0.6-1-0.6c-0.5,0-0.9,0.4-0.9,0.9c0,1.3,2.7,0.7,2.7,2.7c0,1-0.8,1.7-1.8,1.7
		c-0.9,0-1.7-0.6-1.9-1.5l0.5-0.2c0.2,0.7,0.6,1.1,1.4,1.1c0.7,0,1.2-0.6,1.2-1.2c0-0.7-0.5-0.9-1.1-1.1c-0.8-0.3-1.6-0.6-1.6-1.5
		c0-0.8,0.7-1.4,1.5-1.4c0.6,0,1.2,0.4,1.4,0.9L360.6,598.3z"/>
	<path class="st2" d="M363.7,595.5c0,0.3-0.2,0.5-0.5,0.5s-0.5-0.2-0.5-0.5c0-0.3,0.2-0.5,0.5-0.5S363.7,595.2,363.7,595.5z
		 M363.5,602.8H363v-5.5h0.5V602.8z"/>
	<path class="st2" d="M370.5,602.6c0,0.9,0,1.6-0.6,2.4c-0.5,0.7-1.3,1.1-2.2,1.1c-1.5,0-2.7-0.9-2.7-2.4h0.5c0.1,1.2,1,1.9,2.1,1.9
		c0.7,0,1.4-0.2,1.8-0.8c0.4-0.6,0.5-1.4,0.5-2.1v-0.7h0c-0.5,0.7-1.3,1.1-2.2,1.1c-1.6,0-2.7-1.4-2.7-2.9c0-1.6,1.1-2.9,2.8-2.9
		c0.9,0,1.6,0.4,2.1,1.1h0v-1h0.5V602.6z M365.7,600c0,1.3,0.8,2.4,2.2,2.4c1.4,0,2.2-1.2,2.2-2.5c0-1.3-0.9-2.3-2.2-2.3
		C366.5,597.7,365.7,598.8,365.7,600z"/>
	<path class="st2" d="M372.9,598.2L372.9,598.2c0.3-0.6,0.9-1,1.7-1c1.4,0,1.8,0.9,1.8,2.3v3.3h-0.5v-3.3c0-1-0.1-1.8-1.3-1.8
		c-1.4,0-1.6,1.3-1.6,2.4v2.7h-0.5v-5.5h0.5V598.2z"/>
	<path class="st2" d="M379.7,602.5c0,0.3-0.2,0.5-0.5,0.5s-0.5-0.2-0.5-0.5c0-0.3,0.2-0.5,0.5-0.5S379.7,602.2,379.7,602.5z"/>
	<path class="st2" d="M385.7,602.8v-9h1.8c0.7,0,1.3,0,1.9,0.5c0.6,0.5,0.8,1.2,0.8,1.9c0,0.8-0.3,1.4-1,1.8
		c1.1,0.2,1.9,1.1,1.9,2.3c0,0.7-0.3,1.4-0.8,1.9c-0.6,0.5-1.3,0.6-2.1,0.6H385.7z M386.3,597.9h1c0.6,0,1.1,0,1.6-0.3
		c0.5-0.4,0.7-0.8,0.7-1.5c0-0.6-0.2-1.2-0.7-1.5c-0.5-0.3-1-0.3-1.5-0.3h-1V597.9z M386.3,602.3h1.4c0.6,0,1.3,0,1.8-0.3
		s0.9-0.9,0.9-1.6c0-0.7-0.3-1.3-0.9-1.6c-0.6-0.3-1.3-0.3-1.9-0.3h-1.3V602.3z"/>
	<path class="st2" d="M397.7,600.1c0,1.6-1.3,2.9-2.9,2.9c-1.6,0-2.9-1.3-2.9-2.9c0-1.6,1.3-2.9,2.9-2.9
		C396.5,597.2,397.7,598.4,397.7,600.1z M392.5,600.1c0,1.3,1,2.4,2.3,2.4c1.4,0,2.4-1,2.4-2.4c0-1.4-1-2.4-2.4-2.4
		C393.5,597.7,392.5,598.8,392.5,600.1z"/>
	<path class="st2" d="M399.6,598L399.6,598c0.2-0.5,0.6-0.8,1.2-0.8c0.2,0,0.4,0,0.6,0.1l-0.3,0.5c-0.1-0.1-0.2-0.1-0.4-0.1
		c-1.2,0-1.1,1.5-1.1,2.3v2.8H399v-5.5h0.5V598z"/>
	<path class="st2" d="M403,598.2L403,598.2c0.3-0.6,0.9-1,1.7-1c1.4,0,1.8,0.9,1.8,2.3v3.3H406v-3.3c0-1-0.1-1.8-1.3-1.8
		c-1.4,0-1.6,1.3-1.6,2.4v2.7h-0.5v-5.5h0.5V598.2z"/>
	<path class="st2" d="M416.9,602.8h-0.5v-1h0c-0.4,0.7-1.3,1.1-2.1,1.1c-1.7,0-2.7-1.3-2.7-2.9s1-2.9,2.7-2.9c0.9,0,1.7,0.4,2.1,1.1
		h0v-1h0.5V602.8z M412.1,600c0,1.3,0.8,2.4,2.2,2.4c1.4,0,2.2-1.2,2.2-2.5c0-1.3-0.9-2.3-2.2-2.3
		C412.9,597.7,412.1,598.8,412.1,600z"/>
	<path class="st2" d="M419.3,598.2L419.3,598.2c0.3-0.6,0.9-1,1.7-1c1.4,0,1.8,0.9,1.8,2.3v3.3h-0.5v-3.3c0-1-0.1-1.8-1.3-1.8
		c-1.4,0-1.6,1.3-1.6,2.4v2.7h-0.5v-5.5h0.5V598.2z"/>
	<path class="st2" d="M429,601.9L429,601.9c-0.4,0.7-1.3,1.1-2.1,1.1c-1.7,0-2.7-1.3-2.7-2.9s1-2.9,2.7-2.9c0.9,0,1.7,0.4,2.1,1.1h0
		V593h0.5v9.9H429V601.9z M429,600c0-1.3-0.9-2.3-2.2-2.3c-1.3,0-2.1,1.2-2.1,2.4c0,1.3,0.8,2.4,2.2,2.4
		C428.3,602.5,429,601.3,429,600z"/>
	<path class="st2" d="M435.7,598L435.7,598c0.2-0.5,0.6-0.8,1.2-0.8c0.2,0,0.4,0,0.6,0.1l-0.3,0.5c-0.1-0.1-0.2-0.1-0.4-0.1
		c-1.2,0-1.1,1.5-1.1,2.3v2.8h-0.5v-5.5h0.5V598z"/>
	<path class="st2" d="M443.3,602.8h-0.5v-1h0c-0.4,0.7-1.3,1.1-2.1,1.1c-1.7,0-2.7-1.3-2.7-2.9s1-2.9,2.7-2.9c0.9,0,1.7,0.4,2.1,1.1
		h0v-1h0.5V602.8z M438.4,600c0,1.3,0.8,2.4,2.2,2.4c1.4,0,2.2-1.2,2.2-2.5c0-1.3-0.9-2.3-2.2-2.3
		C439.3,597.7,438.4,598.8,438.4,600z"/>
	<path class="st2" d="M447.5,598.3c-0.2-0.4-0.5-0.6-1-0.6c-0.5,0-0.9,0.4-0.9,0.9c0,1.3,2.7,0.7,2.7,2.7c0,1-0.8,1.7-1.8,1.7
		c-0.9,0-1.7-0.6-1.9-1.5l0.5-0.2c0.2,0.7,0.6,1.1,1.4,1.1c0.7,0,1.2-0.6,1.2-1.2c0-0.7-0.5-0.9-1.1-1.1c-0.8-0.3-1.6-0.6-1.6-1.5
		c0-0.8,0.7-1.4,1.5-1.4c0.6,0,1.2,0.4,1.4,0.9L447.5,598.3z"/>
	<path class="st2" d="M450.6,595.5c0,0.3-0.2,0.5-0.5,0.5c-0.3,0-0.5-0.2-0.5-0.5c0-0.3,0.2-0.5,0.5-0.5
		C450.4,595,450.6,595.2,450.6,595.5z M450.4,602.8h-0.5v-5.5h0.5V602.8z"/>
	<path class="st2" d="M452.5,600.1c0,1.4,0.9,2.3,2.2,2.3c0.9,0,1.6-0.5,2-1.3l0.5,0.3c-0.5,1-1.4,1.5-2.5,1.5
		c-1.6,0-2.7-1.3-2.7-2.9c0-1.5,1.1-2.9,2.7-2.9c1.7,0,2.7,1.3,2.7,2.9H452.5z M456.7,599.6c-0.1-1-1-1.9-2.1-1.9
		c-1.1,0-2.1,0.9-2.2,1.9H456.7z"/>
	<path class="st2" d="M462.9,601.9L462.9,601.9c-0.4,0.7-1.3,1.1-2.1,1.1c-1.7,0-2.7-1.3-2.7-2.9s1-2.9,2.7-2.9
		c0.9,0,1.7,0.4,2.1,1.1h0V593h0.5v9.9h-0.5V601.9z M463,600c0-1.3-0.9-2.3-2.2-2.3c-1.3,0-2.1,1.2-2.1,2.4c0,1.3,0.8,2.4,2.2,2.4
		C462.2,602.5,463,601.3,463,600z"/>
	<path class="st2" d="M470,595.5c0,0.3-0.2,0.5-0.5,0.5c-0.3,0-0.5-0.2-0.5-0.5c0-0.3,0.2-0.5,0.5-0.5
		C469.8,595,470,595.2,470,595.5z M469.8,602.8h-0.5v-5.5h0.5V602.8z"/>
	<path class="st2" d="M472.4,598.2L472.4,598.2c0.3-0.6,0.9-1,1.7-1c1.4,0,1.8,0.9,1.8,2.3v3.3h-0.5v-3.3c0-1-0.1-1.8-1.3-1.8
		c-1.4,0-1.6,1.3-1.6,2.4v2.7h-0.5v-5.5h0.5V598.2z"/>
	<path class="st2" d="M490.3,598.3c0,2.5-2.1,4.6-4.7,4.6s-4.7-2.1-4.7-4.6s2.1-4.6,4.7-4.6C488.2,593.7,490.3,595.8,490.3,598.3z
		 M481.5,598.3c0,2.2,1.9,4.1,4.1,4.1c2.2,0,4.1-1.9,4.1-4.1c0-2.2-1.9-4.1-4.1-4.1C483.4,594.2,481.5,596.1,481.5,598.3z"/>
	<path class="st2" d="M492.3,602.8h-0.5v-5h-0.6v-0.5h0.6v-2h0.5v2h1v0.5h-1V602.8z"/>
	<path class="st2" d="M494.8,602.8h-0.5v-5h-0.6v-0.5h0.6v-2h0.5v2h1v0.5h-1V602.8z"/>
	<path class="st2" d="M501.6,602.8H501v-1h0c-0.4,0.7-1.3,1.1-2.1,1.1c-1.7,0-2.7-1.3-2.7-2.9s1-2.9,2.7-2.9c0.9,0,1.7,0.4,2.1,1.1
		h0v-1h0.5V602.8z M496.7,600c0,1.3,0.8,2.4,2.2,2.4c1.4,0,2.2-1.2,2.2-2.5c0-1.3-0.9-2.3-2.2-2.3
		C497.6,597.7,496.7,598.8,496.7,600z"/>
	<path class="st2" d="M505.1,601.9l2-4.8l2,4.8l1.9-4.5h0.6l-2.5,5.8l-2-4.8l-1.9,4.8l-2.5-5.8h0.6L505.1,601.9z"/>
	<path class="st2" d="M517.3,602.8h-0.5v-1h0c-0.4,0.7-1.3,1.1-2.1,1.1c-1.7,0-2.7-1.3-2.7-2.9s1-2.9,2.7-2.9c0.9,0,1.7,0.4,2.1,1.1
		h0v-1h0.5V602.8z M512.5,600c0,1.3,0.8,2.4,2.2,2.4c1.4,0,2.2-1.2,2.2-2.5c0-1.3-0.9-2.3-2.2-2.3
		C513.3,597.7,512.5,598.8,512.5,600z"/>
	<path class="st2" d="M520.6,602.1l-1,2.7l-0.4-0.1l0.8-2.7L520.6,602.1z"/>
	<path class="st2" d="M535.5,598.3c0,2.5-2.1,4.6-4.7,4.6s-4.7-2.1-4.7-4.6s2.1-4.6,4.7-4.6C533.4,593.7,535.5,595.8,535.5,598.3z
		 M526.7,598.3c0,2.2,1.9,4.1,4.1,4.1c2.2,0,4.1-1.9,4.1-4.1c0-2.2-1.9-4.1-4.1-4.1C528.6,594.2,526.7,596.1,526.7,598.3z"/>
	<path class="st2" d="M537.4,598.2L537.4,598.2c0.3-0.6,0.9-1,1.7-1c1.4,0,1.8,0.9,1.8,2.3v3.3h-0.5v-3.3c0-1-0.1-1.8-1.3-1.8
		c-1.4,0-1.6,1.3-1.6,2.4v2.7h-0.5v-5.5h0.5V598.2z"/>
	<path class="st2" d="M543.3,602.8h-0.5v-5h-0.6v-0.5h0.6v-2h0.5v2h1v0.5h-1V602.8z"/>
	<path class="st2" d="M550.1,602.8h-0.5v-1h0c-0.4,0.7-1.3,1.1-2.1,1.1c-1.7,0-2.7-1.3-2.7-2.9s1-2.9,2.7-2.9c0.9,0,1.7,0.4,2.1,1.1
		h0v-1h0.5V602.8z M545.2,600c0,1.3,0.8,2.4,2.2,2.4c1.4,0,2.2-1.2,2.2-2.5c0-1.3-0.9-2.3-2.2-2.3
		C546.1,597.7,545.2,598.8,545.2,600z"/>
	<path class="st2" d="M552.5,598L552.5,598c0.2-0.5,0.6-0.8,1.2-0.8c0.2,0,0.4,0,0.6,0.1l-0.3,0.5c-0.1-0.1-0.2-0.1-0.4-0.1
		c-1.2,0-1.1,1.5-1.1,2.3v2.8H552v-5.5h0.5V598z"/>
	<path class="st2" d="M556.7,598.7v0.5h-2.3v-0.5H556.7z"/>
	<path class="st2" d="M253.1,609.9c0,0.3-0.2,0.5-0.5,0.5s-0.5-0.2-0.5-0.5c0-0.3,0.2-0.5,0.5-0.5S253.1,609.6,253.1,609.9z
		 M252.9,617.3h-0.5v-5.5h0.5V617.3z"/>
	<path class="st2" d="M260.2,614.5c0,1.6-1.3,2.9-2.9,2.9c-1.6,0-2.9-1.3-2.9-2.9c0-1.6,1.3-2.9,2.9-2.9
		C258.9,611.6,260.2,612.8,260.2,614.5z M254.9,614.5c0,1.3,1,2.4,2.3,2.4c1.4,0,2.4-1,2.4-2.4c0-1.4-1-2.4-2.4-2.4
		C255.9,612.1,254.9,613.2,254.9,614.5z"/>
	<path class="st2" d="M262.9,616.9c0,0.3-0.2,0.5-0.5,0.5s-0.5-0.2-0.5-0.5c0-0.3,0.2-0.5,0.5-0.5S262.9,616.6,262.9,616.9z"/>
	<path class="st2" d="M269.5,608.7v3.3h3.6v0.5h-3.6v4.1h3.7v0.5H269v-9h4.3v0.5H269.5z"/>
	<path class="st2" d="M279.3,616.3L279.3,616.3c-0.4,0.7-1.3,1.1-2.1,1.1c-1.7,0-2.7-1.3-2.7-2.9s1-2.9,2.7-2.9
		c0.9,0,1.7,0.4,2.1,1.1h0v-5.3h0.5v9.9h-0.5V616.3z M279.4,614.4c0-1.3-0.9-2.3-2.2-2.3c-1.3,0-2.1,1.2-2.1,2.4
		c0,1.3,0.8,2.4,2.2,2.4C278.6,616.9,279.4,615.7,279.4,614.4z"/>
	<path class="st2" d="M285.6,611.7v3.3c0,0.6,0,1.1-0.3,1.6c-0.4,0.5-1,0.7-1.7,0.7s-1.3-0.2-1.7-0.7c-0.3-0.5-0.3-1-0.3-1.6v-3.3
		h0.5v3.1c0,1.1,0.1,2,1.5,2c1.3,0,1.5-1,1.5-2v-3.1H285.6z"/>
	<path class="st2" d="M291.6,613c-0.5-0.6-1.2-0.9-2-0.9c-1.3,0-2.3,1.1-2.3,2.4c0,1.3,1,2.4,2.3,2.4c0.8,0,1.5-0.4,2-1v0.7
		c-0.6,0.5-1.3,0.8-2,0.8c-1.6,0-2.8-1.3-2.8-2.9c0-1.6,1.2-2.9,2.9-2.9c0.7,0,1.4,0.2,1.9,0.7V613z"/>
	<path class="st2" d="M298,617.3h-0.5v-1h0c-0.4,0.7-1.3,1.1-2.1,1.1c-1.7,0-2.7-1.3-2.7-2.9s1-2.9,2.7-2.9c0.9,0,1.7,0.4,2.1,1.1h0
		v-1h0.5V617.3z M293.1,614.4c0,1.3,0.8,2.4,2.2,2.4c1.4,0,2.2-1.2,2.2-2.5c0-1.3-0.9-2.3-2.2-2.3
		C294,612.1,293.1,613.2,293.1,614.4z"/>
	<path class="st2" d="M300.4,617.3h-0.5v-5h-0.6v-0.5h0.6v-2h0.5v2h1v0.5h-1V617.3z"/>
	<path class="st2" d="M302.3,614.5c0,1.4,0.9,2.3,2.2,2.3c0.9,0,1.6-0.5,2-1.3l0.5,0.3c-0.5,1-1.4,1.5-2.5,1.5
		c-1.6,0-2.7-1.3-2.7-2.9c0-1.5,1.1-2.9,2.7-2.9c1.7,0,2.7,1.3,2.7,2.9H302.3z M306.6,614c-0.1-1-1-1.9-2.1-1.9
		c-1.1,0-2.1,0.9-2.2,1.9H306.6z"/>
	<path class="st2" d="M312.8,616.3L312.8,616.3c-0.4,0.7-1.3,1.1-2.1,1.1c-1.7,0-2.7-1.3-2.7-2.9s1-2.9,2.7-2.9
		c0.9,0,1.7,0.4,2.1,1.1h0v-5.3h0.5v9.9h-0.5V616.3z M312.8,614.4c0-1.3-0.9-2.3-2.2-2.3c-1.3,0-2.1,1.2-2.1,2.4
		c0,1.3,0.8,2.4,2.2,2.4C312.1,616.9,312.8,615.7,312.8,614.4z"/>
	<path class="st2" d="M323.8,617.3h-0.5v-1h0c-0.4,0.7-1.3,1.1-2.1,1.1c-1.7,0-2.7-1.3-2.7-2.9s1-2.9,2.7-2.9c0.9,0,1.7,0.4,2.1,1.1
		h0v-1h0.5V617.3z M318.9,614.4c0,1.3,0.8,2.4,2.2,2.4c1.4,0,2.2-1.2,2.2-2.5c0-1.3-0.9-2.3-2.2-2.3
		C319.8,612.1,318.9,613.2,318.9,614.4z"/>
	<path class="st2" d="M326.2,617.3h-0.5v-5h-0.6v-0.5h0.6v-2h0.5v2h1v0.5h-1V617.3z"/>
	<path class="st2" d="M332.8,614.3l-1.2,3H331l3.8-9.3l3.8,9.3H338l-1.2-3H332.8z M334.8,609.4l-1.8,4.4h3.5L334.8,609.4z"/>
	<path class="st2" d="M340.1,617.3h-0.5v-9.9h0.5V617.3z"/>
	<path class="st2" d="M346.9,617c0,0.9,0,1.6-0.6,2.4c-0.5,0.7-1.3,1.1-2.2,1.1c-1.5,0-2.7-0.9-2.7-2.4h0.5c0.1,1.2,1,1.9,2.1,1.9
		c0.7,0,1.4-0.2,1.8-0.8c0.4-0.6,0.5-1.4,0.5-2.1v-0.7h0c-0.5,0.7-1.3,1.1-2.2,1.1c-1.6,0-2.7-1.4-2.7-2.9c0-1.6,1.1-2.9,2.8-2.9
		c0.9,0,1.6,0.4,2.1,1.1h0v-1h0.5V617z M342,614.4c0,1.3,0.8,2.4,2.2,2.4c1.4,0,2.2-1.2,2.2-2.5c0-1.3-0.9-2.3-2.2-2.3
		C342.9,612.1,342,613.2,342,614.4z"/>
	<path class="st2" d="M354,614.5c0,1.6-1.3,2.9-2.9,2.9c-1.6,0-2.9-1.3-2.9-2.9c0-1.6,1.3-2.9,2.9-2.9
		C352.7,611.6,354,612.8,354,614.5z M348.7,614.5c0,1.3,1,2.4,2.3,2.4c1.4,0,2.4-1,2.4-2.4c0-1.4-1-2.4-2.4-2.4
		C349.7,612.1,348.7,613.2,348.7,614.5z"/>
	<path class="st2" d="M355.8,612.6L355.8,612.6c0.3-0.6,0.9-1,1.7-1c1.4,0,1.8,0.9,1.8,2.3v3.3h-0.5v-3.3c0-1-0.1-1.8-1.3-1.8
		c-1.4,0-1.6,1.3-1.6,2.4v2.7h-0.5v-5.5h0.5V612.6z"/>
	<path class="st2" d="M366,620.5h-0.5v-4.2h0c-0.5,0.7-1.3,1.1-2.1,1.1c-1.7,0-2.7-1.2-2.7-2.8c0-1.6,1-3,2.7-3
		c0.8,0,1.7,0.4,2.1,1.1h0v-1h0.5V620.5z M361.2,614.6c0,1.3,0.9,2.3,2.2,2.3c1.3,0,2.2-1.1,2.2-2.3c0-1.3-0.8-2.4-2.2-2.4
		C361.9,612.1,361.2,613.3,361.2,614.6z"/>
	<path class="st2" d="M371.8,611.7v3.3c0,0.6,0,1.1-0.3,1.6c-0.4,0.5-1,0.7-1.7,0.7s-1.3-0.2-1.7-0.7c-0.3-0.5-0.3-1-0.3-1.6v-3.3
		h0.5v3.1c0,1.1,0.1,2,1.5,2c1.3,0,1.5-1,1.5-2v-3.1H371.8z"/>
	<path class="st2" d="M374.5,609.9c0,0.3-0.2,0.5-0.5,0.5s-0.5-0.2-0.5-0.5c0-0.3,0.2-0.5,0.5-0.5S374.5,609.6,374.5,609.9z
		 M374.3,617.3h-0.5v-5.5h0.5V617.3z"/>
	<path class="st2" d="M376.9,612.6L376.9,612.6c0.3-0.6,0.9-1,1.7-1c1.4,0,1.8,0.9,1.8,2.3v3.3h-0.5v-3.3c0-1-0.1-1.8-1.3-1.8
		c-1.4,0-1.6,1.3-1.6,2.4v2.7h-0.5v-5.5h0.5V612.6z"/>
	<path class="st2" d="M393.2,610.1c-0.7-0.9-1.9-1.4-3-1.4c-2.3,0-4.1,1.9-4.1,4.2c0,1.1,0.5,2.1,1.2,2.8c0.8,0.7,1.8,1.2,2.9,1.2
		c1,0,2.4-0.6,3-1.4v0.8c-0.9,0.7-1.9,1.1-3,1.1c-2.5,0-4.7-2.1-4.7-4.6c0-2.6,2.2-4.7,4.7-4.7c1.1,0,2.2,0.4,3,1.2V610.1z"/>
	<path class="st2" d="M400.1,614.5c0,1.6-1.3,2.9-2.9,2.9c-1.6,0-2.9-1.3-2.9-2.9c0-1.6,1.3-2.9,2.9-2.9
		C398.8,611.6,400.1,612.8,400.1,614.5z M394.8,614.5c0,1.3,1,2.4,2.3,2.4c1.4,0,2.4-1,2.4-2.4c0-1.4-1-2.4-2.4-2.4
		C395.8,612.1,394.8,613.2,394.8,614.5z"/>
	<path class="st2" d="M401.9,617.3h-0.5v-9.9h0.5V617.3z"/>
	<path class="st2" d="M404.3,617.3h-0.5v-9.9h0.5V617.3z"/>
	<path class="st2" d="M406.2,614.5c0,1.4,0.9,2.3,2.2,2.3c0.9,0,1.6-0.5,2-1.3l0.5,0.3c-0.5,1-1.4,1.5-2.5,1.5
		c-1.6,0-2.7-1.3-2.7-2.9c0-1.5,1.1-2.9,2.7-2.9c1.7,0,2.7,1.3,2.7,2.9H406.2z M410.4,614c-0.1-1-1-1.9-2.1-1.9
		c-1.1,0-2.1,0.9-2.2,1.9H410.4z"/>
	<path class="st2" d="M417.2,617c0,0.9,0,1.6-0.6,2.4c-0.5,0.7-1.3,1.1-2.2,1.1c-1.5,0-2.7-0.9-2.7-2.4h0.5c0.1,1.2,1,1.9,2.1,1.9
		c0.7,0,1.4-0.2,1.8-0.8c0.4-0.6,0.5-1.4,0.5-2.1v-0.7h0c-0.5,0.7-1.3,1.1-2.2,1.1c-1.6,0-2.7-1.4-2.7-2.9c0-1.6,1.1-2.9,2.8-2.9
		c0.9,0,1.6,0.4,2.1,1.1h0v-1h0.5V617z M412.4,614.4c0,1.3,0.8,2.4,2.2,2.4c1.4,0,2.2-1.2,2.2-2.5c0-1.3-0.9-2.3-2.2-2.3
		C413.3,612.1,412.4,613.2,412.4,614.4z"/>
	<path class="st2" d="M419.1,614.5c0,1.4,0.9,2.3,2.2,2.3c0.9,0,1.6-0.5,2-1.3l0.5,0.3c-0.5,1-1.4,1.5-2.5,1.5
		c-1.6,0-2.7-1.3-2.7-2.9c0-1.5,1.1-2.9,2.7-2.9c1.7,0,2.7,1.3,2.7,2.9H419.1z M423.4,614c-0.1-1-1-1.9-2.1-1.9
		c-1.1,0-2.1,0.9-2.2,1.9H423.4z"/>
	<path class="st2" d="M429.5,617.3h-0.5v-5h-0.6v-0.5h0.6v-2.5c0-0.4,0-1,0.2-1.4c0.3-0.4,0.7-0.7,1.2-0.7c0.2,0,0.3,0,0.5,0.1v0.5
		c-0.1,0-0.3-0.1-0.4-0.1c-0.9,0-0.9,0.9-0.9,1.6v2.4h1.4v0.5h-1.4V617.3z"/>
	<path class="st2" d="M437.1,614.5c0,1.6-1.3,2.9-2.9,2.9c-1.6,0-2.9-1.3-2.9-2.9c0-1.6,1.3-2.9,2.9-2.9
		C435.8,611.6,437.1,612.8,437.1,614.5z M431.8,614.5c0,1.3,1,2.4,2.3,2.4c1.4,0,2.4-1,2.4-2.4c0-1.4-1-2.4-2.4-2.4
		C432.8,612.1,431.8,613.2,431.8,614.5z"/>
	<path class="st2" d="M438.9,612.4L438.9,612.4c0.2-0.5,0.6-0.8,1.2-0.8c0.2,0,0.4,0,0.6,0.1l-0.3,0.5c-0.1-0.1-0.2-0.1-0.4-0.1
		c-1.2,0-1.1,1.5-1.1,2.3v2.8h-0.5v-5.5h0.5V612.4z"/>
	<path class="st2" d="M454,612.9c0,1.1-0.1,2.1-0.9,3c-0.9,0.9-2.2,1.5-3.4,1.5c-2.5,0-4.6-2.1-4.6-4.6c0-2.6,2.1-4.7,4.7-4.7
		c1.6,0,3,0.8,3.9,2.1l-0.5,0.4c-0.8-1.2-2-1.9-3.5-1.9c-2.2,0-4.1,1.9-4.1,4.1c0,2.2,1.8,4.1,4.1,4.1c1,0,1.9-0.4,2.7-1
		c0.8-0.7,1.1-1.4,1.1-2.4h-3.2v-0.5H454z"/>
	<path class="st2" d="M455.9,612.4L455.9,612.4c0.2-0.5,0.6-0.8,1.2-0.8c0.2,0,0.4,0,0.6,0.1l-0.3,0.5c-0.1-0.1-0.2-0.1-0.4-0.1
		c-1.2,0-1.1,1.5-1.1,2.3v2.8h-0.5v-5.5h0.5V612.4z"/>
	<path class="st2" d="M463.5,617.3H463v-1h0c-0.4,0.7-1.3,1.1-2.1,1.1c-1.7,0-2.7-1.3-2.7-2.9s1-2.9,2.7-2.9c0.9,0,1.7,0.4,2.1,1.1
		h0v-1h0.5V617.3z M458.7,614.4c0,1.3,0.8,2.4,2.2,2.4c1.4,0,2.2-1.2,2.2-2.5c0-1.3-0.9-2.3-2.2-2.3
		C459.5,612.1,458.7,613.2,458.7,614.4z"/>
	<path class="st2" d="M465.9,612.7L465.9,612.7c0.4-0.7,1.3-1.1,2.1-1.1c1.7,0,2.7,1.3,2.7,2.9s-1,2.8-2.7,2.8
		c-0.9,0-1.7-0.4-2.1-1.1h0v4.2h-0.5v-8.8h0.5V612.7z M465.9,614.6c0,1.3,0.9,2.3,2.2,2.3c1.3,0,2.2-1.1,2.2-2.3
		c0-1.3-0.8-2.4-2.2-2.4C466.7,612.1,465.9,613.3,465.9,614.6z"/>
	<path class="st2" d="M472.6,607.4v5.2h0c0.3-0.6,0.9-1,1.6-1c1.4,0,1.8,0.9,1.8,2.3v3.3h-0.5v-3.3c0-1-0.1-1.8-1.3-1.8
		c-1.4,0-1.6,1.3-1.6,2.4v2.7h-0.5v-9.9H472.6z"/>
	<path class="st2" d="M479,609.9c0,0.3-0.2,0.5-0.5,0.5c-0.3,0-0.5-0.2-0.5-0.5c0-0.3,0.2-0.5,0.5-0.5
		C478.7,609.4,479,609.6,479,609.9z M478.7,617.3h-0.5v-5.5h0.5V617.3z"/>
	<path class="st2" d="M485,613c-0.5-0.6-1.2-0.9-2-0.9c-1.3,0-2.3,1.1-2.3,2.4c0,1.3,1,2.4,2.3,2.4c0.8,0,1.5-0.4,2-1v0.7
		c-0.6,0.5-1.3,0.8-2,0.8c-1.6,0-2.8-1.3-2.8-2.9c0-1.6,1.2-2.9,2.9-2.9c0.7,0,1.4,0.2,1.9,0.7V613z"/>
	<path class="st2" d="M490.3,608.2h1.6c1.3,0,2.4,0.2,3.4,1.1c0.9,0.9,1.4,2.1,1.4,3.4c0,1.2-0.5,2.4-1.4,3.3c-1,1-2.1,1.2-3.4,1.2
		h-1.6V608.2z M491.9,616.7c1.2,0,2.2-0.2,3-1.1c0.8-0.8,1.2-1.8,1.2-2.9c0-1.2-0.5-2.2-1.3-3c-0.9-0.8-1.8-1-2.9-1h-1v8H491.9z"/>
	<path class="st2" d="M498.1,614.5c0,1.4,0.9,2.3,2.2,2.3c0.9,0,1.6-0.5,2-1.3l0.5,0.3c-0.5,1-1.4,1.5-2.5,1.5
		c-1.6,0-2.7-1.3-2.7-2.9c0-1.5,1.1-2.9,2.7-2.9c1.7,0,2.7,1.3,2.7,2.9H498.1z M502.3,614c-0.1-1-1-1.9-2.1-1.9
		c-1.1,0-2.1,0.9-2.2,1.9H502.3z"/>
	<path class="st2" d="M506.5,612.7c-0.2-0.4-0.5-0.6-1-0.6c-0.5,0-0.9,0.4-0.9,0.9c0,1.3,2.7,0.7,2.7,2.7c0,1-0.8,1.7-1.8,1.7
		c-0.9,0-1.7-0.6-1.9-1.5l0.5-0.2c0.2,0.7,0.6,1.1,1.4,1.1c0.7,0,1.2-0.6,1.2-1.2c0-0.7-0.5-0.9-1.1-1.1c-0.8-0.3-1.6-0.6-1.6-1.5
		c0-0.8,0.7-1.4,1.5-1.4c0.6,0,1.2,0.4,1.4,0.9L506.5,612.7z"/>
	<path class="st2" d="M509.6,609.9c0,0.3-0.2,0.5-0.5,0.5c-0.3,0-0.5-0.2-0.5-0.5c0-0.3,0.2-0.5,0.5-0.5
		C509.4,609.4,509.6,609.6,509.6,609.9z M509.4,617.3h-0.5v-5.5h0.5V617.3z"/>
	<path class="st2" d="M516.4,617c0,0.9,0,1.6-0.6,2.4c-0.5,0.7-1.3,1.1-2.2,1.1c-1.5,0-2.7-0.9-2.7-2.4h0.5c0.1,1.2,1,1.9,2.1,1.9
		c0.7,0,1.4-0.2,1.8-0.8c0.4-0.6,0.5-1.4,0.5-2.1v-0.7h0c-0.5,0.7-1.3,1.1-2.2,1.1c-1.6,0-2.7-1.4-2.7-2.9c0-1.6,1.1-2.9,2.8-2.9
		c0.9,0,1.6,0.4,2.1,1.1h0v-1h0.5V617z M511.6,614.4c0,1.3,0.8,2.4,2.2,2.4c1.4,0,2.2-1.2,2.2-2.5c0-1.3-0.9-2.3-2.2-2.3
		C512.4,612.1,511.6,613.2,511.6,614.4z"/>
	<path class="st2" d="M518.8,612.6L518.8,612.6c0.3-0.6,0.9-1,1.7-1c1.4,0,1.8,0.9,1.8,2.3v3.3h-0.5v-3.3c0-1-0.1-1.8-1.3-1.8
		c-1.4,0-1.6,1.3-1.6,2.4v2.7h-0.5v-5.5h0.5V612.6z"/>
	<path class="st2" d="M525.6,616.9c0,0.3-0.2,0.5-0.5,0.5c-0.3,0-0.5-0.2-0.5-0.5c0-0.3,0.2-0.5,0.5-0.5
		C525.4,616.4,525.6,616.6,525.6,616.9z"/>
	<path class="st2" d="M222.5,623.1v3.3h3.6v0.5h-3.6v4.1h3.7v0.5h-4.3v-9h4.3v0.5H222.5z"/>
	<path class="st2" d="M227.2,626.1h0.6l1.8,2.2l1.8-2.2h0.6l-2.1,2.6l2.3,2.9h-0.6l-2-2.5l-2,2.5H227l2.3-2.9L227.2,626.1z"/>
	<path class="st2" d="M233.8,627.1L233.8,627.1c0.4-0.7,1.3-1.1,2.1-1.1c1.7,0,2.7,1.3,2.7,2.9s-1,2.8-2.7,2.8
		c-0.9,0-1.7-0.4-2.1-1.1h0v4.2h-0.5v-8.8h0.5V627.1z M233.7,629c0,1.3,0.9,2.3,2.2,2.3c1.3,0,2.2-1.1,2.2-2.3
		c0-1.3-0.8-2.4-2.2-2.4C234.5,626.5,233.7,627.7,233.7,629z"/>
	<path class="st2" d="M240,628.9c0,1.4,0.9,2.3,2.2,2.3c0.9,0,1.6-0.5,2-1.3l0.5,0.3c-0.5,1-1.4,1.5-2.5,1.5c-1.6,0-2.7-1.3-2.7-2.9
		c0-1.5,1.1-2.9,2.7-2.9c1.7,0,2.7,1.3,2.7,2.9H240z M244.2,628.4c-0.1-1-1-1.9-2.1-1.9c-1.1,0-2.1,0.9-2.2,1.9H244.2z"/>
	<path class="st2" d="M247,624.3c0,0.3-0.2,0.5-0.5,0.5s-0.5-0.2-0.5-0.5c0-0.3,0.2-0.5,0.5-0.5S247,624,247,624.3z M246.8,631.6
		h-0.5v-5.5h0.5V631.6z"/>
	<path class="st2" d="M249.4,626.8L249.4,626.8c0.2-0.5,0.6-0.8,1.2-0.8c0.2,0,0.4,0,0.6,0.1l-0.3,0.5c-0.1-0.1-0.2-0.1-0.4-0.1
		c-1.2,0-1.1,1.5-1.1,2.3v2.8h-0.5v-5.5h0.5V626.8z"/>
	<path class="st2" d="M252.2,628.9c0,1.4,0.9,2.3,2.2,2.3c0.9,0,1.6-0.5,2-1.3l0.5,0.3c-0.5,1-1.4,1.5-2.5,1.5
		c-1.6,0-2.7-1.3-2.7-2.9c0-1.5,1.1-2.9,2.7-2.9c1.7,0,2.7,1.3,2.7,2.9H252.2z M256.5,628.4c-0.1-1-1-1.9-2.1-1.9
		c-1.1,0-2.1,0.9-2.2,1.9H256.5z"/>
	<path class="st2" d="M258.9,627L258.9,627c0.3-0.6,0.9-1,1.7-1c1.4,0,1.8,0.9,1.8,2.3v3.3h-0.5v-3.3c0-1-0.1-1.8-1.3-1.8
		c-1.4,0-1.6,1.3-1.6,2.4v2.7h-0.5v-5.5h0.5V627z"/>
	<path class="st2" d="M268.5,627.4c-0.5-0.6-1.2-0.9-2-0.9c-1.3,0-2.3,1.1-2.3,2.4c0,1.3,1,2.4,2.3,2.4c0.8,0,1.5-0.4,2-1v0.7
		c-0.6,0.5-1.3,0.8-2,0.8c-1.6,0-2.8-1.3-2.8-2.9c0-1.6,1.2-2.9,2.9-2.9c0.7,0,1.4,0.2,1.9,0.7V627.4z"/>
	<path class="st2" d="M269.9,628.9c0,1.4,0.9,2.3,2.2,2.3c0.9,0,1.6-0.5,2-1.3l0.5,0.3c-0.5,1-1.4,1.5-2.5,1.5
		c-1.6,0-2.7-1.3-2.7-2.9c0-1.5,1.1-2.9,2.7-2.9c1.7,0,2.7,1.3,2.7,2.9H269.9z M274.2,628.4c-0.1-1-1-1.9-2.1-1.9
		c-1.1,0-2.1,0.9-2.2,1.9H274.2z"/>
	<path class="st2" d="M280.4,630.7L280.4,630.7c-0.4,0.7-1.3,1.1-2.1,1.1c-1.7,0-2.7-1.3-2.7-2.9s1-2.9,2.7-2.9
		c0.9,0,1.7,0.4,2.1,1.1h0v-5.3h0.5v9.9h-0.5V630.7z M280.4,628.8c0-1.3-0.9-2.3-2.2-2.3c-1.3,0-2.1,1.2-2.1,2.4
		c0,1.3,0.8,2.4,2.2,2.4C279.7,631.3,280.4,630.1,280.4,628.8z"/>
	<path class="st2" d="M287.5,624.3c0,0.3-0.2,0.5-0.5,0.5s-0.5-0.2-0.5-0.5c0-0.3,0.2-0.5,0.5-0.5S287.5,624,287.5,624.3z
		 M287.2,631.6h-0.5v-5.5h0.5V631.6z"/>
	<path class="st2" d="M289.9,627L289.9,627c0.3-0.6,0.9-1,1.7-1c1.4,0,1.8,0.9,1.8,2.3v3.3h-0.5v-3.3c0-1-0.1-1.8-1.3-1.8
		c-1.4,0-1.6,1.3-1.6,2.4v2.7h-0.5v-5.5h0.5V627z"/>
	<path class="st2" d="M299.9,624.3c0,0.3-0.2,0.5-0.5,0.5s-0.5-0.2-0.5-0.5c0-0.3,0.2-0.5,0.5-0.5S299.9,624,299.9,624.3z
		 M299.7,631.6h-0.5v-5.5h0.5V631.6z"/>
	<path class="st2" d="M302.3,631.6h-0.5v-9.9h0.5V631.6z"/>
	<path class="st2" d="M304.6,631.6h-0.5v-9.9h0.5V631.6z"/>
	<path class="st2" d="M310.4,626.1v3.3c0,0.6,0,1.1-0.3,1.6c-0.4,0.5-1,0.7-1.7,0.7c-0.6,0-1.3-0.2-1.7-0.7c-0.3-0.5-0.3-1-0.3-1.6
		v-3.3h0.5v3.1c0,1.1,0.1,2,1.5,2c1.3,0,1.5-1,1.5-2v-3.1H310.4z"/>
	<path class="st2" d="M314.5,627.1c-0.2-0.4-0.5-0.6-1-0.6c-0.5,0-0.9,0.4-0.9,0.9c0,1.3,2.7,0.7,2.7,2.7c0,1-0.8,1.7-1.8,1.7
		c-0.9,0-1.7-0.6-1.9-1.5l0.5-0.2c0.2,0.7,0.6,1.1,1.4,1.1c0.7,0,1.2-0.6,1.2-1.2c0-0.7-0.5-0.9-1.1-1.1c-0.8-0.3-1.6-0.6-1.6-1.5
		c0-0.8,0.7-1.4,1.5-1.4c0.6,0,1.2,0.4,1.4,0.9L314.5,627.1z"/>
	<path class="st2" d="M317.3,631.6h-0.5v-5h-0.6v-0.5h0.6v-2h0.5v2h1v0.5h-1V631.6z"/>
	<path class="st2" d="M319.7,626.8L319.7,626.8c0.2-0.5,0.6-0.8,1.2-0.8c0.2,0,0.4,0,0.6,0.1l-0.3,0.5c-0.1-0.1-0.2-0.1-0.4-0.1
		c-1.2,0-1.1,1.5-1.1,2.3v2.8h-0.5v-5.5h0.5V626.8z"/>
	<path class="st2" d="M327.4,631.6h-0.5v-1h0c-0.4,0.7-1.3,1.1-2.1,1.1c-1.7,0-2.7-1.3-2.7-2.9s1-2.9,2.7-2.9c0.9,0,1.7,0.4,2.1,1.1
		h0v-1h0.5V631.6z M322.5,628.8c0,1.3,0.8,2.4,2.2,2.4c1.4,0,2.2-1.2,2.2-2.5c0-1.3-0.9-2.3-2.2-2.3
		C323.4,626.5,322.5,627.6,322.5,628.8z"/>
	<path class="st2" d="M329.8,631.6h-0.5v-5h-0.6v-0.5h0.6v-2h0.5v2h1v0.5h-1V631.6z"/>
	<path class="st2" d="M332.7,624.3c0,0.3-0.2,0.5-0.5,0.5s-0.5-0.2-0.5-0.5c0-0.3,0.2-0.5,0.5-0.5S332.7,624,332.7,624.3z
		 M332.5,631.6h-0.5v-5.5h0.5V631.6z"/>
	<path class="st2" d="M339.8,628.9c0,1.6-1.3,2.9-2.9,2.9c-1.6,0-2.9-1.3-2.9-2.9c0-1.6,1.3-2.9,2.9-2.9
		C338.5,626,339.8,627.2,339.8,628.9z M334.5,628.9c0,1.3,1,2.4,2.3,2.4c1.4,0,2.4-1,2.4-2.4c0-1.4-1-2.4-2.4-2.4
		C335.5,626.5,334.5,627.6,334.5,628.9z"/>
	<path class="st2" d="M341.6,627L341.6,627c0.3-0.6,0.9-1,1.7-1c1.4,0,1.8,0.9,1.8,2.3v3.3h-0.5v-3.3c0-1-0.1-1.8-1.3-1.8
		c-1.4,0-1.6,1.3-1.6,2.4v2.7h-0.5v-5.5h0.5V627z"/>
	<path class="st2" d="M352.1,627.5v0.5h-2.3v-0.5H352.1z"/>
	<path class="st2" d="M357.7,624.3c0,0.3-0.2,0.5-0.5,0.5s-0.5-0.2-0.5-0.5c0-0.3,0.2-0.5,0.5-0.5S357.7,624,357.7,624.3z
		 M357.4,631.6h-0.5v-5.5h0.5V631.6z"/>
	<path class="st2" d="M360.1,627L360.1,627c0.3-0.6,0.9-1,1.7-1c1.4,0,1.8,0.9,1.8,2.3v3.3H363v-3.3c0-1-0.1-1.8-1.3-1.8
		c-1.4,0-1.6,1.3-1.6,2.4v2.7h-0.5v-5.5h0.5V627z"/>
	<path class="st2" d="M366,631.6h-0.5v-5h-0.6v-0.5h0.6v-2h0.5v2h1v0.5h-1V631.6z"/>
	<path class="st2" d="M367.9,628.9c0,1.4,0.9,2.3,2.2,2.3c0.9,0,1.6-0.5,2-1.3l0.5,0.3c-0.5,1-1.4,1.5-2.5,1.5
		c-1.6,0-2.7-1.3-2.7-2.9c0-1.5,1.1-2.9,2.7-2.9c1.7,0,2.7,1.3,2.7,2.9H367.9z M372.2,628.4c-0.1-1-1-1.9-2.1-1.9
		c-1.1,0-2.1,0.9-2.2,1.9H372.2z"/>
	<path class="st2" d="M374.6,626.8L374.6,626.8c0.2-0.5,0.6-0.8,1.2-0.8c0.2,0,0.4,0,0.6,0.1l-0.3,0.5c-0.1-0.1-0.2-0.1-0.4-0.1
		c-1.2,0-1.1,1.5-1.1,2.3v2.8H374v-5.5h0.5V626.8z"/>
	<path class="st2" d="M382.2,631.6h-0.5v-1h0c-0.4,0.7-1.3,1.1-2.1,1.1c-1.7,0-2.7-1.3-2.7-2.9s1-2.9,2.7-2.9c0.9,0,1.7,0.4,2.1,1.1
		h0v-1h0.5V631.6z M377.4,628.8c0,1.3,0.8,2.4,2.2,2.4c1.4,0,2.2-1.2,2.2-2.5c0-1.3-0.9-2.3-2.2-2.3
		C378.2,626.5,377.4,627.6,377.4,628.8z"/>
	<path class="st2" d="M388.3,627.4c-0.5-0.6-1.2-0.9-2-0.9c-1.3,0-2.3,1.1-2.3,2.4c0,1.3,1,2.4,2.3,2.4c0.8,0,1.5-0.4,2-1v0.7
		c-0.6,0.5-1.3,0.8-2,0.8c-1.6,0-2.8-1.3-2.8-2.9c0-1.6,1.2-2.9,2.9-2.9c0.7,0,1.4,0.2,1.9,0.7V627.4z"/>
	<path class="st2" d="M390.4,631.6h-0.5v-5h-0.6v-0.5h0.6v-2h0.5v2h1v0.5h-1V631.6z"/>
	<path class="st2" d="M393.3,624.3c0,0.3-0.2,0.5-0.5,0.5s-0.5-0.2-0.5-0.5c0-0.3,0.2-0.5,0.5-0.5S393.3,624,393.3,624.3z
		 M393.1,631.6h-0.5v-5.5h0.5V631.6z"/>
	<path class="st2" d="M396.8,630.7l2-4.6h0.6l-2.5,5.8l-2.5-5.8h0.6L396.8,630.7z"/>
	<path class="st2" d="M400.3,628.9c0,1.4,0.9,2.3,2.2,2.3c0.9,0,1.6-0.5,2-1.3l0.5,0.3c-0.5,1-1.4,1.5-2.5,1.5
		c-1.6,0-2.7-1.3-2.7-2.9c0-1.5,1.1-2.9,2.7-2.9c1.7,0,2.7,1.3,2.7,2.9H400.3z M404.6,628.4c-0.1-1-1-1.9-2.1-1.9
		c-1.1,0-2.1,0.9-2.2,1.9H404.6z"/>
	<path class="st2" d="M414.5,630.7L414.5,630.7c-0.4,0.7-1.3,1.1-2.1,1.1c-1.7,0-2.7-1.3-2.7-2.9s1-2.9,2.7-2.9
		c0.9,0,1.7,0.4,2.1,1.1h0v-5.3h0.5v9.9h-0.5V630.7z M414.5,628.8c0-1.3-0.9-2.3-2.2-2.3c-1.3,0-2.1,1.2-2.1,2.4
		c0,1.3,0.8,2.4,2.2,2.4C413.7,631.3,414.5,630.1,414.5,628.8z"/>
	<path class="st2" d="M416.9,628.9c0,1.4,0.9,2.3,2.2,2.3c0.9,0,1.6-0.5,2-1.3l0.5,0.3c-0.5,1-1.4,1.5-2.5,1.5
		c-1.6,0-2.7-1.3-2.7-2.9c0-1.5,1.1-2.9,2.7-2.9c1.7,0,2.7,1.3,2.7,2.9H416.9z M421.1,628.4c-0.1-1-1-1.9-2.1-1.9
		c-1.1,0-2.1,0.9-2.2,1.9H421.1z"/>
	<path class="st2" d="M425.3,627.1c-0.2-0.4-0.5-0.6-1-0.6c-0.5,0-0.9,0.4-0.9,0.9c0,1.3,2.7,0.7,2.7,2.7c0,1-0.8,1.7-1.8,1.7
		c-0.9,0-1.7-0.6-1.9-1.5l0.5-0.2c0.2,0.7,0.6,1.1,1.4,1.1c0.7,0,1.2-0.6,1.2-1.2c0-0.7-0.5-0.9-1.1-1.1c-0.8-0.3-1.6-0.6-1.6-1.5
		c0-0.8,0.7-1.4,1.5-1.4c0.6,0,1.2,0.4,1.4,0.9L425.3,627.1z"/>
	<path class="st2" d="M428.5,624.3c0,0.3-0.2,0.5-0.5,0.5c-0.3,0-0.5-0.2-0.5-0.5c0-0.3,0.2-0.5,0.5-0.5
		C428.2,623.8,428.5,624,428.5,624.3z M428.2,631.6h-0.5v-5.5h0.5V631.6z"/>
	<path class="st2" d="M435.3,631.4c0,0.9,0,1.6-0.6,2.4c-0.5,0.7-1.3,1.1-2.2,1.1c-1.5,0-2.7-0.9-2.7-2.4h0.5c0.1,1.2,1,1.9,2.1,1.9
		c0.7,0,1.4-0.2,1.8-0.8c0.4-0.6,0.5-1.4,0.5-2.1v-0.7h0c-0.5,0.7-1.3,1.1-2.2,1.1c-1.6,0-2.7-1.4-2.7-2.9c0-1.6,1.1-2.9,2.8-2.9
		c0.9,0,1.6,0.4,2.1,1.1h0v-1h0.5V631.4z M430.4,628.8c0,1.3,0.8,2.4,2.2,2.4c1.4,0,2.2-1.2,2.2-2.5c0-1.3-0.9-2.3-2.2-2.3
		C431.3,626.5,430.4,627.6,430.4,628.8z"/>
	<path class="st2" d="M437.6,627L437.6,627c0.3-0.6,0.9-1,1.7-1c1.4,0,1.8,0.9,1.8,2.3v3.3h-0.5v-3.3c0-1-0.1-1.8-1.3-1.8
		c-1.4,0-1.6,1.3-1.6,2.4v2.7h-0.5v-5.5h0.5V627z"/>
	<path class="st2" d="M448.1,627.5v0.5h-2.3v-0.5H448.1z"/>
	<path class="st2" d="M454.3,630.7l2-4.8l2,4.8l1.9-4.5h0.6l-2.5,5.8l-2-4.8l-1.9,4.8l-2.5-5.8h0.6L454.3,630.7z"/>
	<path class="st2" d="M461.7,628.9c0,1.4,0.9,2.3,2.2,2.3c0.9,0,1.6-0.5,2-1.3l0.5,0.3c-0.5,1-1.4,1.5-2.5,1.5
		c-1.6,0-2.7-1.3-2.7-2.9c0-1.5,1.1-2.9,2.7-2.9c1.7,0,2.7,1.3,2.7,2.9H461.7z M466,628.4c-0.1-1-1-1.9-2.1-1.9
		c-1.1,0-2.1,0.9-2.2,1.9H466z"/>
	<path class="st2" d="M472.2,630.7L472.2,630.7c-0.4,0.7-1.3,1.1-2.1,1.1c-1.7,0-2.7-1.3-2.7-2.9s1-2.9,2.7-2.9
		c0.9,0,1.7,0.4,2.1,1.1h0v-5.3h0.5v9.9h-0.5V630.7z M472.2,628.8c0-1.3-0.9-2.3-2.2-2.3c-1.3,0-2.1,1.2-2.1,2.4
		c0,1.3,0.8,2.4,2.2,2.4C471.4,631.3,472.2,630.1,472.2,628.8z"/>
	<path class="st2" d="M482.6,630.7L482.6,630.7c-0.4,0.7-1.3,1.1-2.1,1.1c-1.7,0-2.7-1.3-2.7-2.9s1-2.9,2.7-2.9
		c0.9,0,1.7,0.4,2.1,1.1h0v-5.3h0.5v9.9h-0.5V630.7z M482.7,628.8c0-1.3-0.9-2.3-2.2-2.3c-1.3,0-2.1,1.2-2.1,2.4
		c0,1.3,0.8,2.4,2.2,2.4C481.9,631.3,482.7,630.1,482.7,628.8z"/>
	<path class="st2" d="M485,628.9c0,1.4,0.9,2.3,2.2,2.3c0.9,0,1.6-0.5,2-1.3l0.5,0.3c-0.5,1-1.4,1.5-2.5,1.5c-1.6,0-2.7-1.3-2.7-2.9
		c0-1.5,1.1-2.9,2.7-2.9c1.7,0,2.7,1.3,2.7,2.9H485z M489.3,628.4c-0.1-1-1-1.9-2.1-1.9c-1.1,0-2.1,0.9-2.2,1.9H489.3z"/>
	<path class="st2" d="M493.5,627.1c-0.2-0.4-0.5-0.6-1-0.6c-0.5,0-0.9,0.4-0.9,0.9c0,1.3,2.7,0.7,2.7,2.7c0,1-0.8,1.7-1.8,1.7
		c-0.9,0-1.7-0.6-1.9-1.5l0.5-0.2c0.2,0.7,0.6,1.1,1.4,1.1c0.7,0,1.2-0.6,1.2-1.2c0-0.7-0.5-0.9-1.1-1.1c-0.8-0.3-1.6-0.6-1.6-1.5
		c0-0.8,0.7-1.4,1.5-1.4c0.6,0,1.2,0.4,1.4,0.9L493.5,627.1z"/>
	<path class="st2" d="M496.6,624.3c0,0.3-0.2,0.5-0.5,0.5c-0.3,0-0.5-0.2-0.5-0.5c0-0.3,0.2-0.5,0.5-0.5
		C496.4,623.8,496.6,624,496.6,624.3z M496.4,631.6h-0.5v-5.5h0.5V631.6z"/>
	<path class="st2" d="M503.4,631.4c0,0.9,0,1.6-0.6,2.4c-0.5,0.7-1.3,1.1-2.2,1.1c-1.5,0-2.7-0.9-2.7-2.4h0.5c0.1,1.2,1,1.9,2.1,1.9
		c0.7,0,1.4-0.2,1.8-0.8c0.4-0.6,0.5-1.4,0.5-2.1v-0.7h0c-0.5,0.7-1.3,1.1-2.2,1.1c-1.6,0-2.7-1.4-2.7-2.9c0-1.6,1.1-2.9,2.8-2.9
		c0.9,0,1.6,0.4,2.1,1.1h0v-1h0.5V631.4z M498.5,628.8c0,1.3,0.8,2.4,2.2,2.4c1.4,0,2.2-1.2,2.2-2.5c0-1.3-0.9-2.3-2.2-2.3
		C499.4,626.5,498.5,627.6,498.5,628.8z"/>
	<path class="st2" d="M505.8,627L505.8,627c0.3-0.6,0.9-1,1.7-1c1.4,0,1.8,0.9,1.8,2.3v3.3h-0.5v-3.3c0-1-0.1-1.8-1.3-1.8
		c-1.4,0-1.6,1.3-1.6,2.4v2.7h-0.5v-5.5h0.5V627z"/>
	<path class="st2" d="M516.2,627.5v0.5h-2.3v-0.5H516.2z"/>
	<path class="st2" d="M521.4,627.1L521.4,627.1c0.4-0.7,1.3-1.1,2.1-1.1c1.7,0,2.7,1.3,2.7,2.9s-1,2.8-2.7,2.8
		c-0.9,0-1.7-0.4-2.1-1.1h0v4.2h-0.5v-8.8h0.5V627.1z M521.3,629c0,1.3,0.9,2.3,2.2,2.3c1.3,0,2.2-1.1,2.2-2.3
		c0-1.3-0.8-2.4-2.2-2.4C522.1,626.5,521.3,627.7,521.3,629z"/>
	<path class="st2" d="M528.1,621.8v5.2h0c0.3-0.6,0.9-1,1.6-1c1.4,0,1.8,0.9,1.8,2.3v3.3H531v-3.3c0-1-0.1-1.8-1.3-1.8
		c-1.4,0-1.6,1.3-1.6,2.4v2.7h-0.5v-9.9H528.1z"/>
	<path class="st2" d="M538.7,628.9c0,1.6-1.3,2.9-2.9,2.9c-1.6,0-2.9-1.3-2.9-2.9c0-1.6,1.3-2.9,2.9-2.9
		C537.4,626,538.7,627.2,538.7,628.9z M533.4,628.9c0,1.3,1,2.4,2.3,2.4c1.4,0,2.4-1,2.4-2.4c0-1.4-1-2.4-2.4-2.4
		C534.4,626.5,533.4,627.6,533.4,628.9z"/>
	<path class="st2" d="M540.6,631.6h-0.5v-5h-0.6v-0.5h0.6v-2h0.5v2h1v0.5h-1V631.6z"/>
	<path class="st2" d="M547.8,628.9c0,1.6-1.3,2.9-2.9,2.9c-1.6,0-2.9-1.3-2.9-2.9c0-1.6,1.3-2.9,2.9-2.9
		C546.5,626,547.8,627.2,547.8,628.9z M542.5,628.9c0,1.3,1,2.4,2.3,2.4c1.4,0,2.4-1,2.4-2.4c0-1.4-1-2.4-2.4-2.4
		C543.5,626.5,542.5,627.6,542.5,628.9z"/>
	<path class="st2" d="M554,631.4c0,0.9,0,1.6-0.6,2.4c-0.5,0.7-1.3,1.1-2.2,1.1c-1.5,0-2.7-0.9-2.7-2.4h0.5c0.1,1.2,1,1.9,2.1,1.9
		c0.7,0,1.4-0.2,1.8-0.8c0.4-0.6,0.5-1.4,0.5-2.1v-0.7h0c-0.5,0.7-1.3,1.1-2.2,1.1c-1.6,0-2.7-1.4-2.7-2.9c0-1.6,1.1-2.9,2.8-2.9
		c0.9,0,1.6,0.4,2.1,1.1h0v-1h0.5V631.4z M549.2,628.8c0,1.3,0.8,2.4,2.2,2.4c1.4,0,2.2-1.2,2.2-2.5c0-1.3-0.9-2.3-2.2-2.3
		C550,626.5,549.2,627.6,549.2,628.8z"/>
	<path class="st2" d="M557.2,627.5v0.5H555v-0.5H557.2z"/>
	<path class="st2" d="M340.3,641.2L340.3,641.2c0.2-0.5,0.6-0.8,1.2-0.8c0.2,0,0.4,0,0.6,0.1l-0.3,0.5c-0.1-0.1-0.2-0.1-0.4-0.1
		c-1.2,0-1.1,1.5-1.1,2.3v2.8h-0.5v-5.5h0.5V641.2z"/>
	<path class="st2" d="M348,646.1h-0.5v-1h0c-0.4,0.7-1.3,1.1-2.1,1.1c-1.7,0-2.7-1.3-2.7-2.9s1-2.9,2.7-2.9c0.9,0,1.7,0.4,2.1,1.1h0
		v-1h0.5V646.1z M343.1,643.2c0,1.3,0.8,2.4,2.2,2.4c1.4,0,2.2-1.2,2.2-2.5c0-1.3-0.9-2.3-2.2-2.3C344,640.9,343.1,642,343.1,643.2z
		"/>
	<path class="st2" d="M350.4,641.5L350.4,641.5c0.4-0.7,1.3-1.1,2.1-1.1c1.7,0,2.7,1.3,2.7,2.9s-1,2.8-2.7,2.8
		c-0.9,0-1.7-0.4-2.1-1.1h0v4.2h-0.5v-8.8h0.5V641.5z M350.3,643.4c0,1.3,0.9,2.3,2.2,2.3c1.3,0,2.2-1.1,2.2-2.3
		c0-1.3-0.8-2.4-2.2-2.4C351.1,640.9,350.3,642.1,350.3,643.4z"/>
	<path class="st2" d="M357.1,636.2v5.2h0c0.3-0.6,0.9-1,1.6-1c1.4,0,1.8,0.9,1.8,2.3v3.3H360v-3.3c0-1-0.1-1.8-1.3-1.8
		c-1.4,0-1.6,1.3-1.6,2.4v2.7h-0.5v-9.9H357.1z"/>
	<path class="st2" d="M361.4,640.5h0.6l2.4,5l2.1-5h0.6l-3.7,8.8h-0.6l1.3-3.1L361.4,640.5z"/>
	<path class="st2" d="M373,641.9v0.5h-2.3v-0.5H373z"/>
	<path class="st2" d="M378.2,646.1h-0.5v-9.9h0.5V646.1z"/>
	<path class="st2" d="M385.3,643.3c0,1.6-1.3,2.9-2.9,2.9c-1.6,0-2.9-1.3-2.9-2.9c0-1.6,1.3-2.9,2.9-2.9
		C384,640.4,385.3,641.6,385.3,643.3z M380,643.3c0,1.3,1,2.4,2.3,2.4c1.4,0,2.4-1,2.4-2.4c0-1.4-1-2.4-2.4-2.4
		C381,640.9,380,642,380,643.3z"/>
	<path class="st2" d="M391.6,645.8c0,0.9,0,1.6-0.6,2.4c-0.5,0.7-1.3,1.1-2.2,1.1c-1.5,0-2.7-0.9-2.7-2.4h0.5c0.1,1.2,1,1.9,2.1,1.9
		c0.7,0,1.4-0.2,1.8-0.8c0.4-0.6,0.5-1.4,0.5-2.1v-0.7h0c-0.5,0.7-1.3,1.1-2.2,1.1c-1.6,0-2.7-1.4-2.7-2.9c0-1.6,1.1-2.9,2.8-2.9
		c0.9,0,1.6,0.4,2.1,1.1h0v-1h0.5V645.8z M386.7,643.2c0,1.3,0.8,2.4,2.2,2.4c1.4,0,2.2-1.2,2.2-2.5c0-1.3-0.9-2.3-2.2-2.3
		C387.6,640.9,386.7,642,386.7,643.2z"/>
	<path class="st2" d="M398.7,643.3c0,1.6-1.3,2.9-2.9,2.9c-1.6,0-2.9-1.3-2.9-2.9c0-1.6,1.3-2.9,2.9-2.9
		C397.4,640.4,398.7,641.6,398.7,643.3z M393.4,643.3c0,1.3,1,2.4,2.3,2.4c1.4,0,2.4-1,2.4-2.4c0-1.4-1-2.4-2.4-2.4
		C394.4,640.9,393.4,642,393.4,643.3z"/>
	<path class="st2" d="M408,645.1L408,645.1c-0.4,0.7-1.3,1.1-2.1,1.1c-1.7,0-2.7-1.3-2.7-2.9s1-2.9,2.7-2.9c0.9,0,1.7,0.4,2.1,1.1h0
		v-5.3h0.5v9.9H408V645.1z M408.1,643.2c0-1.3-0.9-2.3-2.2-2.3c-1.3,0-2.1,1.2-2.1,2.4c0,1.3,0.8,2.4,2.2,2.4
		C407.3,645.7,408.1,644.5,408.1,643.2z"/>
	<path class="st2" d="M410.4,643.3c0,1.4,0.9,2.3,2.2,2.3c0.9,0,1.6-0.5,2-1.3l0.5,0.3c-0.5,1-1.4,1.5-2.5,1.5
		c-1.6,0-2.7-1.3-2.7-2.9c0-1.5,1.1-2.9,2.7-2.9c1.7,0,2.7,1.3,2.7,2.9H410.4z M414.7,642.8c-0.1-1-1-1.9-2.1-1.9
		c-1.1,0-2.1,0.9-2.2,1.9H414.7z"/>
	<path class="st2" d="M418.9,641.5c-0.2-0.4-0.5-0.6-1-0.6c-0.5,0-0.9,0.4-0.9,0.9c0,1.3,2.7,0.7,2.7,2.7c0,1-0.8,1.7-1.8,1.7
		c-0.9,0-1.7-0.6-1.9-1.5l0.5-0.2c0.2,0.7,0.6,1.1,1.4,1.1c0.7,0,1.2-0.6,1.2-1.2c0-0.7-0.5-0.9-1.1-1.1c-0.8-0.3-1.6-0.6-1.6-1.5
		c0-0.8,0.7-1.4,1.5-1.4c0.6,0,1.2,0.4,1.4,0.9L418.9,641.5z"/>
	<path class="st2" d="M422,638.7c0,0.3-0.2,0.5-0.5,0.5c-0.3,0-0.5-0.2-0.5-0.5c0-0.3,0.2-0.5,0.5-0.5
		C421.8,638.2,422,638.4,422,638.7z M421.8,646.1h-0.5v-5.5h0.5V646.1z"/>
	<path class="st2" d="M428.8,645.8c0,0.9,0,1.6-0.6,2.4c-0.5,0.7-1.3,1.1-2.2,1.1c-1.5,0-2.7-0.9-2.7-2.4h0.5c0.1,1.2,1,1.9,2.1,1.9
		c0.7,0,1.4-0.2,1.8-0.8c0.4-0.6,0.5-1.4,0.5-2.1v-0.7h0c-0.5,0.7-1.3,1.1-2.2,1.1c-1.6,0-2.7-1.4-2.7-2.9c0-1.6,1.1-2.9,2.8-2.9
		c0.9,0,1.6,0.4,2.1,1.1h0v-1h0.5V645.8z M423.9,643.2c0,1.3,0.8,2.4,2.2,2.4c1.4,0,2.2-1.2,2.2-2.5c0-1.3-0.9-2.3-2.2-2.3
		C424.8,640.9,423.9,642,423.9,643.2z"/>
	<path class="st2" d="M431.2,641.4L431.2,641.4c0.3-0.6,0.9-1,1.7-1c1.4,0,1.8,0.9,1.8,2.3v3.3h-0.5v-3.3c0-1-0.1-1.8-1.3-1.8
		c-1.4,0-1.6,1.3-1.6,2.4v2.7h-0.5v-5.5h0.5V641.4z"/>
	<path class="st2" d="M437.9,645.7c0,0.3-0.2,0.5-0.5,0.5c-0.3,0-0.5-0.2-0.5-0.5c0-0.3,0.2-0.5,0.5-0.5
		C437.7,645.2,437.9,645.4,437.9,645.7z"/>
</g>
<g>
</g>
<g>
</g>
<g>
</g>
<g>
</g>
<g>
</g>
<g>
</g>
<g>
</g>
<g>
</g>
<g>
</g>
<g>
</g>
<g>
</g>
<g>
</g>
<g>
</g>
<g>
</g>
<g>
</g>
</svg>
